<?xml version="1.0" encoding="utf-8" standalone="no"?>
<!DOCTYPE svg PUBLIC "-//W3C//DTD SVG 1.1//EN"
  "http://www.w3.org/Graphics/SVG/1.1/DTD/svg11.dtd">
<svg xmlns:xlink="http://www.w3.org/1999/xlink" width="72pt" height="72pt" viewBox="0 0 72 72" xmlns="http://www.w3.org/2000/svg" version="1.1">
 <metadata>
  <rdf:RDF xmlns:dc="http://purl.org/dc/elements/1.1/" xmlns:cc="http://creativecommons.org/ns#" xmlns:rdf="http://www.w3.org/1999/02/22-rdf-syntax-ns#">
   <cc:Work>
    <dc:type rdf:resource="http://purl.org/dc/dcmitype/StillImage"/>
    <dc:date>2024-01-14T12:57:49.337616</dc:date>
    <dc:format>image/svg+xml</dc:format>
    <dc:creator>
     <cc:Agent>
      <dc:title>Matplotlib v3.5.1, https://matplotlib.org/</dc:title>
     </cc:Agent>
    </dc:creator>
   </cc:Work>
  </rdf:RDF>
 </metadata>
 <defs>
  <style type="text/css">*{stroke-linejoin: round; stroke-linecap: butt}</style>
 </defs>
 <g id="figure_1">
  <g id="patch_1">
   <path d="M 0 72 
L 72 72 
L 72 0 
L 0 0 
z
" style="fill: #ffffff"/>
  </g>
  <g id="axes_1">
   <g id="patch_2">
    <path d="M 9 64.08 
L 64.8 64.08 
L 64.8 8.64 
L 9 8.64 
L 9 64.08 
z
" style="fill: none"/>
   </g>
   <g id="matplotlib.axis_1">
    <g id="xtick_1">
     <g id="line2d_1">
      <defs>
       <path id="m95d31a425d" d="M 0 0 
L 0 3.5 
" style="stroke: #000000; stroke-width: 0.25"/>
      </defs>
      <g>
       <use xlink:href="#m95d31a425d" x="12.061324" y="64.08" style="stroke: #000000; stroke-width: 0.25"/>
      </g>
     </g>
     <g id="text_1">
      <text style="font: 5px 'Arial'; text-anchor: middle" x="12.061324" y="74.658906" transform="rotate(-0, 12.061324, 74.658906)">20</text>
     </g>
    </g>
    <g id="xtick_2">
     <g id="line2d_2">
      <g>
       <use xlink:href="#m95d31a425d" x="33.049006" y="64.08" style="stroke: #000000; stroke-width: 0.25"/>
      </g>
     </g>
     <g id="text_2">
      <text style="font: 5px 'Arial'; text-anchor: middle" x="33.049006" y="74.658906" transform="rotate(-0, 33.049006, 74.658906)">30</text>
     </g>
    </g>
    <g id="xtick_3">
     <g id="line2d_3">
      <g>
       <use xlink:href="#m95d31a425d" x="54.036688" y="64.08" style="stroke: #000000; stroke-width: 0.25"/>
      </g>
     </g>
     <g id="text_3">
      <text style="font: 5px 'Arial'; text-anchor: middle" x="54.036688" y="74.658906" transform="rotate(-0, 54.036688, 74.658906)">40</text>
     </g>
    </g>
    <g id="text_4">
     <text style="font: 5px 'Arial'; text-anchor: middle" x="36.9" y="83.246406" transform="rotate(-0, 36.9, 83.246406)">Fatty amides [FA08]</text>
    </g>
   </g>
   <g id="matplotlib.axis_2">
    <g id="ytick_1">
     <g id="line2d_4">
      <defs>
       <path id="m5c81da2452" d="M 0 0 
L -3.5 0 
" style="stroke: #000000; stroke-width: 0.25"/>
      </defs>
      <g>
       <use xlink:href="#m5c81da2452" x="9" y="61.722617" style="stroke: #000000; stroke-width: 0.25"/>
      </g>
     </g>
     <g id="text_5">
      <text style="font: 5px 'Arial'; text-anchor: end" x="2" y="63.51207" transform="rotate(-0, 2, 63.51207)">0</text>
     </g>
    </g>
    <g id="ytick_2">
     <g id="line2d_5">
      <g>
       <use xlink:href="#m5c81da2452" x="9" y="48.451145" style="stroke: #000000; stroke-width: 0.25"/>
      </g>
     </g>
     <g id="text_6">
      <text style="font: 5px 'Arial'; text-anchor: end" x="2" y="50.240598" transform="rotate(-0, 2, 50.240598)">2</text>
     </g>
    </g>
    <g id="ytick_3">
     <g id="line2d_6">
      <g>
       <use xlink:href="#m5c81da2452" x="9" y="35.179673" style="stroke: #000000; stroke-width: 0.25"/>
      </g>
     </g>
     <g id="text_7">
      <text style="font: 5px 'Arial'; text-anchor: end" x="2" y="36.969126" transform="rotate(-0, 2, 36.969126)">4</text>
     </g>
    </g>
    <g id="ytick_4">
     <g id="line2d_7">
      <g>
       <use xlink:href="#m5c81da2452" x="9" y="21.908201" style="stroke: #000000; stroke-width: 0.25"/>
      </g>
     </g>
     <g id="text_8">
      <text style="font: 5px 'Arial'; text-anchor: end" x="2" y="23.697654" transform="rotate(-0, 2, 23.697654)">6</text>
     </g>
    </g>
    <g id="text_9">
     <text style="font: 5px 'Arial'; text-anchor: middle" x="-5.832813" y="36.36" transform="rotate(-90, -5.832813, 36.36)">P108-PWY: pyruvate fermentation to propanoate I</text>
    </g>
    <g id="text_10">
     <text style="font: 5px 'Arial'; text-anchor: start" x="9" y="5.64" transform="rotate(-0, 9, 5.64)">1e−5</text>
    </g>
   </g>
   <g id="PathCollection_1">
    <defs>
     <path id="m25ffb6eaa9" d="M 0 0.5 
C 0.132602 0.5 0.25979 0.447317 0.353553 0.353553 
C 0.447317 0.25979 0.5 0.132602 0.5 0 
C 0.5 -0.132602 0.447317 -0.25979 0.353553 -0.353553 
C 0.25979 -0.447317 0.132602 -0.5 0 -0.5 
C -0.132602 -0.5 -0.25979 -0.447317 -0.353553 -0.353553 
C -0.447317 -0.25979 -0.5 -0.132602 -0.5 0 
C -0.5 0.132602 -0.447317 0.25979 -0.353553 0.353553 
C -0.25979 0.447317 -0.132602 0.5 0 0.5 
z
" style="stroke: #000000; stroke-opacity: 0.8"/>
    </defs>
    <g clip-path="url(#pb527fa4193)">
     <use xlink:href="#m25ffb6eaa9" x="17.203508" y="54.916412" style="fill-opacity: 0.8; stroke: #000000; stroke-opacity: 0.8"/>
     <use xlink:href="#m25ffb6eaa9" x="14.689002" y="47.477486" style="fill-opacity: 0.8; stroke: #000000; stroke-opacity: 0.8"/>
     <use xlink:href="#m25ffb6eaa9" x="15.770087" y="41.63505" style="fill-opacity: 0.8; stroke: #000000; stroke-opacity: 0.8"/>
     <use xlink:href="#m25ffb6eaa9" x="37.117553" y="16.988868" style="fill-opacity: 0.8; stroke: #000000; stroke-opacity: 0.8"/>
     <use xlink:href="#m25ffb6eaa9" x="15.06754" y="45.955575" style="fill-opacity: 0.8; stroke: #000000; stroke-opacity: 0.8"/>
     <use xlink:href="#m25ffb6eaa9" x="29.948331" y="51.448911" style="fill-opacity: 0.8; stroke: #000000; stroke-opacity: 0.8"/>
     <use xlink:href="#m25ffb6eaa9" x="58.799605" y="47.284254" style="fill-opacity: 0.8; stroke: #000000; stroke-opacity: 0.8"/>
     <use xlink:href="#m25ffb6eaa9" x="61.98873" y="54.18694" style="fill-opacity: 0.8; stroke: #000000; stroke-opacity: 0.8"/>
     <use xlink:href="#m25ffb6eaa9" x="14.850326" y="48.779292" style="fill-opacity: 0.8; stroke: #000000; stroke-opacity: 0.8"/>
     <use xlink:href="#m25ffb6eaa9" x="36.922965" y="51.803449" style="fill-opacity: 0.8; stroke: #000000; stroke-opacity: 0.8"/>
     <use xlink:href="#m25ffb6eaa9" x="29.74557" y="59.329784" style="fill-opacity: 0.8; stroke: #000000; stroke-opacity: 0.8"/>
     <use xlink:href="#m25ffb6eaa9" x="56.954602" y="58.486397" style="fill-opacity: 0.8; stroke: #000000; stroke-opacity: 0.8"/>
     <use xlink:href="#m25ffb6eaa9" x="14.644188" y="28.683628" style="fill-opacity: 0.8; stroke: #000000; stroke-opacity: 0.8"/>
     <use xlink:href="#m25ffb6eaa9" x="17.332719" y="53.689988" style="fill-opacity: 0.8; stroke: #000000; stroke-opacity: 0.8"/>
     <use xlink:href="#m25ffb6eaa9" x="24.887544" y="57.201736" style="fill-opacity: 0.8; stroke: #000000; stroke-opacity: 0.8"/>
     <use xlink:href="#m25ffb6eaa9" x="16.557433" y="50.002977" style="fill-opacity: 0.8; stroke: #000000; stroke-opacity: 0.8"/>
     <use xlink:href="#m25ffb6eaa9" x="43.259885" y="47.26421" style="fill-opacity: 0.8; stroke: #000000; stroke-opacity: 0.8"/>
     <use xlink:href="#m25ffb6eaa9" x="62.263636" y="51.635577" style="fill-opacity: 0.8; stroke: #000000; stroke-opacity: 0.8"/>
     <use xlink:href="#m25ffb6eaa9" x="15.674211" y="54.713493" style="fill-opacity: 0.8; stroke: #000000; stroke-opacity: 0.8"/>
     <use xlink:href="#m25ffb6eaa9" x="27.866456" y="60.234136" style="fill-opacity: 0.8; stroke: #000000; stroke-opacity: 0.8"/>
     <use xlink:href="#m25ffb6eaa9" x="33.415543" y="52.824023" style="fill-opacity: 0.8; stroke: #000000; stroke-opacity: 0.8"/>
     <use xlink:href="#m25ffb6eaa9" x="13.22748" y="43.240163" style="fill-opacity: 0.8; stroke: #000000; stroke-opacity: 0.8"/>
     <use xlink:href="#m25ffb6eaa9" x="36.811024" y="17.455671" style="fill-opacity: 0.8; stroke: #000000; stroke-opacity: 0.8"/>
     <use xlink:href="#m25ffb6eaa9" x="22.128037" y="44.037521" style="fill-opacity: 0.8; stroke: #000000; stroke-opacity: 0.8"/>
     <use xlink:href="#m25ffb6eaa9" x="21.176113" y="49.090704" style="fill-opacity: 0.8; stroke: #000000; stroke-opacity: 0.8"/>
     <use xlink:href="#m25ffb6eaa9" x="17.020134" y="60.259212" style="fill-opacity: 0.8; stroke: #000000; stroke-opacity: 0.8"/>
     <use xlink:href="#m25ffb6eaa9" x="25.662883" y="53.212886" style="fill-opacity: 0.8; stroke: #000000; stroke-opacity: 0.8"/>
     <use xlink:href="#m25ffb6eaa9" x="32.855312" y="36.798043" style="fill-opacity: 0.8; stroke: #000000; stroke-opacity: 0.8"/>
     <use xlink:href="#m25ffb6eaa9" x="40.010225" y="57.915176" style="fill-opacity: 0.8; stroke: #000000; stroke-opacity: 0.8"/>
     <use xlink:href="#m25ffb6eaa9" x="11.536364" y="55.069894" style="fill-opacity: 0.8; stroke: #000000; stroke-opacity: 0.8"/>
     <use xlink:href="#m25ffb6eaa9" x="31.230391" y="53.281367" style="fill-opacity: 0.8; stroke: #000000; stroke-opacity: 0.8"/>
     <use xlink:href="#m25ffb6eaa9" x="52.708755" y="60.171162" style="fill-opacity: 0.8; stroke: #000000; stroke-opacity: 0.8"/>
     <use xlink:href="#m25ffb6eaa9" x="57.439374" y="55.621622" style="fill-opacity: 0.8; stroke: #000000; stroke-opacity: 0.8"/>
     <use xlink:href="#m25ffb6eaa9" x="17.001799" y="52.439561" style="fill-opacity: 0.8; stroke: #000000; stroke-opacity: 0.8"/>
     <use xlink:href="#m25ffb6eaa9" x="16.031452" y="58.017393" style="fill-opacity: 0.8; stroke: #000000; stroke-opacity: 0.8"/>
     <use xlink:href="#m25ffb6eaa9" x="16.04572" y="49.605567" style="fill-opacity: 0.8; stroke: #000000; stroke-opacity: 0.8"/>
     <use xlink:href="#m25ffb6eaa9" x="26.153141" y="57.446093" style="fill-opacity: 0.8; stroke: #000000; stroke-opacity: 0.8"/>
     <use xlink:href="#m25ffb6eaa9" x="59.909642" y="52.074652" style="fill-opacity: 0.8; stroke: #000000; stroke-opacity: 0.8"/>
     <use xlink:href="#m25ffb6eaa9" x="15.849169" y="54.132663" style="fill-opacity: 0.8; stroke: #000000; stroke-opacity: 0.8"/>
     <use xlink:href="#m25ffb6eaa9" x="39.751354" y="52.480171" style="fill-opacity: 0.8; stroke: #000000; stroke-opacity: 0.8"/>
     <use xlink:href="#m25ffb6eaa9" x="20.930606" y="59.841351" style="fill-opacity: 0.8; stroke: #000000; stroke-opacity: 0.8"/>
     <use xlink:href="#m25ffb6eaa9" x="16.029011" y="48.964953" style="fill-opacity: 0.8; stroke: #000000; stroke-opacity: 0.8"/>
     <use xlink:href="#m25ffb6eaa9" x="16.021377" y="30.964395" style="fill-opacity: 0.8; stroke: #000000; stroke-opacity: 0.8"/>
     <use xlink:href="#m25ffb6eaa9" x="17.150536" y="50.43185" style="fill-opacity: 0.8; stroke: #000000; stroke-opacity: 0.8"/>
     <use xlink:href="#m25ffb6eaa9" x="16.376677" y="57.49069" style="fill-opacity: 0.8; stroke: #000000; stroke-opacity: 0.8"/>
     <use xlink:href="#m25ffb6eaa9" x="12.207427" y="42.80414" style="fill-opacity: 0.8; stroke: #000000; stroke-opacity: 0.8"/>
     <use xlink:href="#m25ffb6eaa9" x="35.845561" y="41.283957" style="fill-opacity: 0.8; stroke: #000000; stroke-opacity: 0.8"/>
     <use xlink:href="#m25ffb6eaa9" x="40.513349" y="50.939943" style="fill-opacity: 0.8; stroke: #000000; stroke-opacity: 0.8"/>
     <use xlink:href="#m25ffb6eaa9" x="24.20197" y="55.920296" style="fill-opacity: 0.8; stroke: #000000; stroke-opacity: 0.8"/>
     <use xlink:href="#m25ffb6eaa9" x="18.394946" y="58.790939" style="fill-opacity: 0.8; stroke: #000000; stroke-opacity: 0.8"/>
     <use xlink:href="#m25ffb6eaa9" x="16.495966" y="56.539413" style="fill-opacity: 0.8; stroke: #000000; stroke-opacity: 0.8"/>
     <use xlink:href="#m25ffb6eaa9" x="44.696917" y="52.993167" style="fill-opacity: 0.8; stroke: #000000; stroke-opacity: 0.8"/>
     <use xlink:href="#m25ffb6eaa9" x="16.463831" y="57.102081" style="fill-opacity: 0.8; stroke: #000000; stroke-opacity: 0.8"/>
     <use xlink:href="#m25ffb6eaa9" x="34.063478" y="40.417065" style="fill-opacity: 0.8; stroke: #000000; stroke-opacity: 0.8"/>
     <use xlink:href="#m25ffb6eaa9" x="28.682245" y="54.349449" style="fill-opacity: 0.8; stroke: #000000; stroke-opacity: 0.8"/>
     <use xlink:href="#m25ffb6eaa9" x="24.878559" y="58.623179" style="fill-opacity: 0.8; stroke: #000000; stroke-opacity: 0.8"/>
     <use xlink:href="#m25ffb6eaa9" x="24.715387" y="52.779435" style="fill-opacity: 0.8; stroke: #000000; stroke-opacity: 0.8"/>
     <use xlink:href="#m25ffb6eaa9" x="50.165516" y="57.310967" style="fill-opacity: 0.8; stroke: #000000; stroke-opacity: 0.8"/>
     <use xlink:href="#m25ffb6eaa9" x="51.397588" y="42.344404" style="fill-opacity: 0.8; stroke: #000000; stroke-opacity: 0.8"/>
     <use xlink:href="#m25ffb6eaa9" x="26.463298" y="54.560402" style="fill-opacity: 0.8; stroke: #000000; stroke-opacity: 0.8"/>
     <use xlink:href="#m25ffb6eaa9" x="39.595946" y="22.729628" style="fill-opacity: 0.8; stroke: #000000; stroke-opacity: 0.8"/>
     <use xlink:href="#m25ffb6eaa9" x="32.849887" y="50.108491" style="fill-opacity: 0.8; stroke: #000000; stroke-opacity: 0.8"/>
     <use xlink:href="#m25ffb6eaa9" x="52.014237" y="38.843118" style="fill-opacity: 0.8; stroke: #000000; stroke-opacity: 0.8"/>
     <use xlink:href="#m25ffb6eaa9" x="45.47965" y="42.174739" style="fill-opacity: 0.8; stroke: #000000; stroke-opacity: 0.8"/>
     <use xlink:href="#m25ffb6eaa9" x="23.149334" y="47.395668" style="fill-opacity: 0.8; stroke: #000000; stroke-opacity: 0.8"/>
     <use xlink:href="#m25ffb6eaa9" x="27.778506" y="46.719284" style="fill-opacity: 0.8; stroke: #000000; stroke-opacity: 0.8"/>
     <use xlink:href="#m25ffb6eaa9" x="52.46208" y="60.629226" style="fill-opacity: 0.8; stroke: #000000; stroke-opacity: 0.8"/>
     <use xlink:href="#m25ffb6eaa9" x="38.196133" y="44.219139" style="fill-opacity: 0.8; stroke: #000000; stroke-opacity: 0.8"/>
     <use xlink:href="#m25ffb6eaa9" x="47.211072" y="34.901884" style="fill-opacity: 0.8; stroke: #000000; stroke-opacity: 0.8"/>
     <use xlink:href="#m25ffb6eaa9" x="51.405814" y="53.71514" style="fill-opacity: 0.8; stroke: #000000; stroke-opacity: 0.8"/>
     <use xlink:href="#m25ffb6eaa9" x="27.6833" y="56.760237" style="fill-opacity: 0.8; stroke: #000000; stroke-opacity: 0.8"/>
     <use xlink:href="#m25ffb6eaa9" x="50.562102" y="56.796005" style="fill-opacity: 0.8; stroke: #000000; stroke-opacity: 0.8"/>
     <use xlink:href="#m25ffb6eaa9" x="57.075959" y="55.356667" style="fill-opacity: 0.8; stroke: #000000; stroke-opacity: 0.8"/>
     <use xlink:href="#m25ffb6eaa9" x="35.914875" y="44.655849" style="fill-opacity: 0.8; stroke: #000000; stroke-opacity: 0.8"/>
     <use xlink:href="#m25ffb6eaa9" x="39.212128" y="46.216302" style="fill-opacity: 0.8; stroke: #000000; stroke-opacity: 0.8"/>
     <use xlink:href="#m25ffb6eaa9" x="40.178678" y="48.879612" style="fill-opacity: 0.8; stroke: #000000; stroke-opacity: 0.8"/>
     <use xlink:href="#m25ffb6eaa9" x="43.093835" y="61.56" style="fill-opacity: 0.8; stroke: #000000; stroke-opacity: 0.8"/>
     <use xlink:href="#m25ffb6eaa9" x="54.166802" y="43.57819" style="fill-opacity: 0.8; stroke: #000000; stroke-opacity: 0.8"/>
     <use xlink:href="#m25ffb6eaa9" x="47.749351" y="40.756673" style="fill-opacity: 0.8; stroke: #000000; stroke-opacity: 0.8"/>
     <use xlink:href="#m25ffb6eaa9" x="32.137967" y="50.590965" style="fill-opacity: 0.8; stroke: #000000; stroke-opacity: 0.8"/>
     <use xlink:href="#m25ffb6eaa9" x="46.236082" y="47.053192" style="fill-opacity: 0.8; stroke: #000000; stroke-opacity: 0.8"/>
     <use xlink:href="#m25ffb6eaa9" x="44.02242" y="52.039753" style="fill-opacity: 0.8; stroke: #000000; stroke-opacity: 0.8"/>
     <use xlink:href="#m25ffb6eaa9" x="31.404517" y="13.949138" style="fill-opacity: 0.8; stroke: #000000; stroke-opacity: 0.8"/>
     <use xlink:href="#m25ffb6eaa9" x="40.854954" y="52.749446" style="fill-opacity: 0.8; stroke: #000000; stroke-opacity: 0.8"/>
     <use xlink:href="#m25ffb6eaa9" x="24.720203" y="49.883072" style="fill-opacity: 0.8; stroke: #000000; stroke-opacity: 0.8"/>
     <use xlink:href="#m25ffb6eaa9" x="23.741007" y="35.573702" style="fill-opacity: 0.8; stroke: #000000; stroke-opacity: 0.8"/>
     <use xlink:href="#m25ffb6eaa9" x="48.364382" y="37.096877" style="fill-opacity: 0.8; stroke: #000000; stroke-opacity: 0.8"/>
     <use xlink:href="#m25ffb6eaa9" x="42.847193" y="57.365478" style="fill-opacity: 0.8; stroke: #000000; stroke-opacity: 0.8"/>
     <use xlink:href="#m25ffb6eaa9" x="30.380707" y="43.426046" style="fill-opacity: 0.8; stroke: #000000; stroke-opacity: 0.8"/>
     <use xlink:href="#m25ffb6eaa9" x="42.369947" y="56.260936" style="fill-opacity: 0.8; stroke: #000000; stroke-opacity: 0.8"/>
     <use xlink:href="#m25ffb6eaa9" x="30.814059" y="45.117285" style="fill-opacity: 0.8; stroke: #000000; stroke-opacity: 0.8"/>
     <use xlink:href="#m25ffb6eaa9" x="53.986754" y="49.125143" style="fill-opacity: 0.8; stroke: #000000; stroke-opacity: 0.8"/>
     <use xlink:href="#m25ffb6eaa9" x="51.340957" y="61.067216" style="fill-opacity: 0.8; stroke: #000000; stroke-opacity: 0.8"/>
     <use xlink:href="#m25ffb6eaa9" x="29.399971" y="52.072464" style="fill-opacity: 0.8; stroke: #000000; stroke-opacity: 0.8"/>
     <use xlink:href="#m25ffb6eaa9" x="38.263391" y="33.485566" style="fill-opacity: 0.8; stroke: #000000; stroke-opacity: 0.8"/>
     <use xlink:href="#m25ffb6eaa9" x="47.457971" y="11.16" style="fill-opacity: 0.8; stroke: #000000; stroke-opacity: 0.8"/>
     <use xlink:href="#m25ffb6eaa9" x="17.626904" y="58.275652" style="fill-opacity: 0.8; stroke: #000000; stroke-opacity: 0.8"/>
     <use xlink:href="#m25ffb6eaa9" x="32.234306" y="41.305317" style="fill-opacity: 0.8; stroke: #000000; stroke-opacity: 0.8"/>
     <use xlink:href="#m25ffb6eaa9" x="60.453836" y="51.04234" style="fill-opacity: 0.8; stroke: #000000; stroke-opacity: 0.8"/>
     <use xlink:href="#m25ffb6eaa9" x="33.823075" y="57.105205" style="fill-opacity: 0.8; stroke: #000000; stroke-opacity: 0.8"/>
     <use xlink:href="#m25ffb6eaa9" x="38.070109" y="50.09568" style="fill-opacity: 0.8; stroke: #000000; stroke-opacity: 0.8"/>
     <use xlink:href="#m25ffb6eaa9" x="28.300687" y="36.780996" style="fill-opacity: 0.8; stroke: #000000; stroke-opacity: 0.8"/>
    </g>
   </g>
   <g id="PolyCollection_1">
    <path d="M 11.536364 46.131986 
L 11.536364 52.308471 
L 12.04876 52.222036 
L 12.561157 52.168552 
L 13.073554 52.130917 
L 13.58595 52.091824 
L 14.098347 51.977006 
L 14.610744 51.914588 
L 15.12314 51.852701 
L 15.635537 51.791774 
L 16.147934 51.730847 
L 16.660331 51.669908 
L 17.172727 51.608924 
L 17.685124 51.5675 
L 18.197521 51.50659 
L 18.709917 51.432269 
L 19.222314 51.365877 
L 19.734711 51.295296 
L 20.247107 51.208891 
L 20.759504 51.151805 
L 21.271901 51.109371 
L 21.784298 51.055695 
L 22.296694 51.000773 
L 22.809091 50.933304 
L 23.321488 50.887984 
L 23.833884 50.857005 
L 24.346281 50.827252 
L 24.858678 50.812213 
L 25.371074 50.766979 
L 25.883471 50.746837 
L 26.395868 50.709055 
L 26.908264 50.68477 
L 27.420661 50.685349 
L 27.933058 50.645614 
L 28.445455 50.646408 
L 28.957851 50.601404 
L 29.470248 50.590915 
L 29.982645 50.591363 
L 30.495041 50.584706 
L 31.007438 50.59805 
L 31.519835 50.578039 
L 32.032231 50.591612 
L 32.544628 50.611079 
L 33.057025 50.614205 
L 33.569421 50.627463 
L 34.081818 50.59051 
L 34.594215 50.56847 
L 35.106612 50.546851 
L 35.619008 50.493739 
L 36.131405 50.514286 
L 36.643802 50.534833 
L 37.156198 50.554897 
L 37.668595 50.574289 
L 38.180992 50.585801 
L 38.693388 50.615867 
L 39.205785 50.636978 
L 39.718182 50.684875 
L 40.230579 50.697694 
L 40.742975 50.699207 
L 41.255372 50.719754 
L 41.767769 50.740003 
L 42.280165 50.75247 
L 42.792562 50.764937 
L 43.304959 50.777403 
L 43.817355 50.78987 
L 44.329752 50.844216 
L 44.842149 50.865143 
L 45.354545 50.878989 
L 45.866942 50.882316 
L 46.379339 50.899543 
L 46.891736 50.925515 
L 47.404132 50.951486 
L 47.916529 50.97739 
L 48.428926 50.993178 
L 48.941322 50.999838 
L 49.453719 51.024294 
L 49.966116 51.058091 
L 50.478512 51.089746 
L 50.990909 51.109613 
L 51.503306 51.121581 
L 52.015702 51.139088 
L 52.528099 51.15268 
L 53.040496 51.166531 
L 53.552893 51.180559 
L 54.065289 51.193751 
L 54.577686 51.205145 
L 55.090083 51.223015 
L 55.602479 51.257502 
L 56.114876 51.26946 
L 56.627273 51.281135 
L 57.139669 51.29234 
L 57.652066 51.304423 
L 58.164463 51.315973 
L 58.67686 51.327203 
L 59.189256 51.360197 
L 59.701653 51.372638 
L 60.21405 51.397396 
L 60.726446 51.434933 
L 61.238843 51.49095 
L 61.75124 51.547189 
L 62.263636 51.571526 
L 62.263636 42.952314 
L 62.263636 42.952314 
L 61.75124 43.013968 
L 61.238843 43.089675 
L 60.726446 43.15273 
L 60.21405 43.210703 
L 59.701653 43.266143 
L 59.189256 43.333348 
L 58.67686 43.398995 
L 58.164463 43.460562 
L 57.652066 43.522128 
L 57.139669 43.583694 
L 56.627273 43.659042 
L 56.114876 43.764187 
L 55.602479 43.857249 
L 55.090083 43.932033 
L 54.577686 44.006818 
L 54.065289 44.081989 
L 53.552893 44.157745 
L 53.040496 44.233501 
L 52.528099 44.309258 
L 52.015702 44.380722 
L 51.503306 44.460123 
L 50.990909 44.535576 
L 50.478512 44.631833 
L 49.966116 44.71225 
L 49.453719 44.788172 
L 48.941322 44.871528 
L 48.428926 44.942928 
L 47.916529 45.014569 
L 47.404132 45.086262 
L 46.891736 45.158291 
L 46.379339 45.242949 
L 45.866942 45.30571 
L 45.354545 45.372839 
L 44.842149 45.444493 
L 44.329752 45.516146 
L 43.817355 45.5878 
L 43.304959 45.662395 
L 42.792562 45.735606 
L 42.280165 45.786455 
L 41.767769 45.806606 
L 41.255372 45.852757 
L 40.742975 45.920614 
L 40.230579 45.992389 
L 39.718182 46.062649 
L 39.205785 46.123472 
L 38.693388 46.186804 
L 38.180992 46.203985 
L 37.668595 46.268182 
L 37.156198 46.314138 
L 36.643802 46.344114 
L 36.131405 46.410193 
L 35.619008 46.473526 
L 35.106612 46.557797 
L 34.594215 46.57304 
L 34.081818 46.599955 
L 33.569421 46.618647 
L 33.057025 46.640753 
L 32.544628 46.724274 
L 32.032231 46.728878 
L 31.519835 46.753477 
L 31.007438 46.777958 
L 30.495041 46.785022 
L 29.982645 46.79213 
L 29.470248 46.834918 
L 28.957851 46.817239 
L 28.445455 46.816204 
L 27.933058 46.818282 
L 27.420661 46.801682 
L 26.908264 46.82255 
L 26.395868 46.859869 
L 25.883471 46.843586 
L 25.371074 46.831822 
L 24.858678 46.820581 
L 24.346281 46.809463 
L 23.833884 46.807757 
L 23.321488 46.77529 
L 22.809091 46.738023 
L 22.296694 46.753171 
L 21.784298 46.748858 
L 21.271901 46.739014 
L 20.759504 46.726505 
L 20.247107 46.701854 
L 19.734711 46.697948 
L 19.222314 46.694254 
L 18.709917 46.681204 
L 18.197521 46.665524 
L 17.685124 46.64001 
L 17.172727 46.583752 
L 16.660331 46.53867 
L 16.147934 46.496551 
L 15.635537 46.456809 
L 15.12314 46.407009 
L 14.610744 46.398306 
L 14.098347 46.353077 
L 13.58595 46.307848 
L 13.073554 46.262619 
L 12.561157 46.217389 
L 12.04876 46.17216 
L 11.536364 46.131986 
z
" clip-path="url(#pb527fa4193)" style="fill: #ff0000; fill-opacity: 0.15"/>
   </g>
   <g id="line2d_8">
    <path d="M 11.536364 49.255115 
L 12.04876 49.240403 
L 12.561157 49.225691 
L 13.073554 49.210979 
L 13.58595 49.196267 
L 14.098347 49.181555 
L 14.610744 49.166843 
L 15.12314 49.15213 
L 15.635537 49.137418 
L 16.147934 49.122706 
L 16.660331 49.107994 
L 17.172727 49.093282 
L 17.685124 49.07857 
L 18.197521 49.063858 
L 18.709917 49.049146 
L 19.222314 49.034434 
L 19.734711 49.019722 
L 20.247107 49.00501 
L 20.759504 48.990298 
L 21.271901 48.975586 
L 21.784298 48.960874 
L 22.296694 48.946162 
L 22.809091 48.931449 
L 23.321488 48.916737 
L 23.833884 48.902025 
L 24.346281 48.887313 
L 24.858678 48.872601 
L 25.371074 48.857889 
L 25.883471 48.843177 
L 26.395868 48.828465 
L 26.908264 48.813753 
L 27.420661 48.799041 
L 27.933058 48.784329 
L 28.445455 48.769617 
L 28.957851 48.754905 
L 29.470248 48.740193 
L 29.982645 48.72548 
L 30.495041 48.710768 
L 31.007438 48.696056 
L 31.519835 48.681344 
L 32.032231 48.666632 
L 32.544628 48.65192 
L 33.057025 48.637208 
L 33.569421 48.622496 
L 34.081818 48.607784 
L 34.594215 48.593072 
L 35.106612 48.57836 
L 35.619008 48.563648 
L 36.131405 48.548936 
L 36.643802 48.534224 
L 37.156198 48.519512 
L 37.668595 48.504799 
L 38.180992 48.490087 
L 38.693388 48.475375 
L 39.205785 48.460663 
L 39.718182 48.445951 
L 40.230579 48.431239 
L 40.742975 48.416527 
L 41.255372 48.401815 
L 41.767769 48.387103 
L 42.280165 48.372391 
L 42.792562 48.357679 
L 43.304959 48.342967 
L 43.817355 48.328255 
L 44.329752 48.313543 
L 44.842149 48.298831 
L 45.354545 48.284118 
L 45.866942 48.269406 
L 46.379339 48.254694 
L 46.891736 48.239982 
L 47.404132 48.22527 
L 47.916529 48.210558 
L 48.428926 48.195846 
L 48.941322 48.181134 
L 49.453719 48.166422 
L 49.966116 48.15171 
L 50.478512 48.136998 
L 50.990909 48.122286 
L 51.503306 48.107574 
L 52.015702 48.092862 
L 52.528099 48.07815 
L 53.040496 48.063437 
L 53.552893 48.048725 
L 54.065289 48.034013 
L 54.577686 48.019301 
L 55.090083 48.004589 
L 55.602479 47.989877 
L 56.114876 47.975165 
L 56.627273 47.960453 
L 57.139669 47.945741 
L 57.652066 47.931029 
L 58.164463 47.916317 
L 58.67686 47.901605 
L 59.189256 47.886893 
L 59.701653 47.872181 
L 60.21405 47.857468 
L 60.726446 47.842756 
L 61.238843 47.828044 
L 61.75124 47.813332 
L 62.263636 47.79862 
" clip-path="url(#pb527fa4193)" style="fill: none; stroke: #ff0000; stroke-width: 0.375; stroke-linecap: square"/>
   </g>
   <g id="patch_3">
    <path d="M 9 64.08 
L 9 8.64 
" style="fill: none; stroke: #000000; stroke-width: 0.25; stroke-linejoin: miter; stroke-linecap: square"/>
   </g>
   <g id="patch_4">
    <path d="M 64.8 64.08 
L 64.8 8.64 
" style="fill: none; stroke: #000000; stroke-width: 0.25; stroke-linejoin: miter; stroke-linecap: square"/>
   </g>
   <g id="patch_5">
    <path d="M 9 64.08 
L 64.8 64.08 
" style="fill: none; stroke: #000000; stroke-width: 0.25; stroke-linejoin: miter; stroke-linecap: square"/>
   </g>
   <g id="patch_6">
    <path d="M 9 8.64 
L 64.8 8.64 
" style="fill: none; stroke: #000000; stroke-width: 0.25; stroke-linejoin: miter; stroke-linecap: square"/>
   </g>
  </g>
 </g>
 <defs>
  <clipPath id="pb527fa4193">
   <rect x="9" y="8.64" width="55.8" height="55.44"/>
  </clipPath>
 </defs>
</svg>
