<?xml version="1.0" encoding="utf-8" standalone="no"?>
<!DOCTYPE svg PUBLIC "-//W3C//DTD SVG 1.1//EN"
  "http://www.w3.org/Graphics/SVG/1.1/DTD/svg11.dtd">
<svg xmlns:xlink="http://www.w3.org/1999/xlink" width="216pt" height="216pt" viewBox="0 0 216 216" xmlns="http://www.w3.org/2000/svg" version="1.1">
 <metadata>
  <rdf:RDF xmlns:dc="http://purl.org/dc/elements/1.1/" xmlns:cc="http://creativecommons.org/ns#" xmlns:rdf="http://www.w3.org/1999/02/22-rdf-syntax-ns#">
   <cc:Work>
    <dc:type rdf:resource="http://purl.org/dc/dcmitype/StillImage"/>
    <dc:date>2024-01-13T17:42:47.871948</dc:date>
    <dc:format>image/svg+xml</dc:format>
    <dc:creator>
     <cc:Agent>
      <dc:title>Matplotlib v3.5.1, https://matplotlib.org/</dc:title>
     </cc:Agent>
    </dc:creator>
   </cc:Work>
  </rdf:RDF>
 </metadata>
 <defs>
  <style type="text/css">*{stroke-linejoin: round; stroke-linecap: butt}</style>
 </defs>
 <g id="figure_1">
  <g id="patch_1">
   <path d="M 0 216 
L 216 216 
L 216 0 
L 0 0 
z
" style="fill: #ffffff"/>
  </g>
  <g id="axes_1">
   <g id="patch_2">
    <path d="M 27 192.24 
L 194.4 192.24 
L 194.4 25.92 
L 27 25.92 
L 27 192.24 
z
" style="fill: none"/>
   </g>
   <g id="matplotlib.axis_1">
    <g id="xtick_1">
     <g id="line2d_1">
      <defs>
       <path id="ma685743a89" d="M 0 0 
L 0 3.5 
" style="stroke: #000000; stroke-width: 0.25"/>
      </defs>
      <g>
       <use xlink:href="#ma685743a89" x="28.641176" y="192.24" style="stroke: #000000; stroke-width: 0.25"/>
      </g>
     </g>
     <g id="text_1">
      <text style="font: 5px 'Arial'; text-anchor: middle" x="28.641176" y="202.818906" transform="rotate(-0, 28.641176, 202.818906)">0.0</text>
     </g>
    </g>
    <g id="xtick_2">
     <g id="line2d_2">
      <g>
       <use xlink:href="#ma685743a89" x="61.464706" y="192.24" style="stroke: #000000; stroke-width: 0.25"/>
      </g>
     </g>
     <g id="text_2">
      <text style="font: 5px 'Arial'; text-anchor: middle" x="61.464706" y="202.818906" transform="rotate(-0, 61.464706, 202.818906)">0.2</text>
     </g>
    </g>
    <g id="xtick_3">
     <g id="line2d_3">
      <g>
       <use xlink:href="#ma685743a89" x="94.288235" y="192.24" style="stroke: #000000; stroke-width: 0.25"/>
      </g>
     </g>
     <g id="text_3">
      <text style="font: 5px 'Arial'; text-anchor: middle" x="94.288235" y="202.818906" transform="rotate(-0, 94.288235, 202.818906)">0.4</text>
     </g>
    </g>
    <g id="xtick_4">
     <g id="line2d_4">
      <g>
       <use xlink:href="#ma685743a89" x="127.111765" y="192.24" style="stroke: #000000; stroke-width: 0.25"/>
      </g>
     </g>
     <g id="text_4">
      <text style="font: 5px 'Arial'; text-anchor: middle" x="127.111765" y="202.818906" transform="rotate(-0, 127.111765, 202.818906)">0.6</text>
     </g>
    </g>
    <g id="xtick_5">
     <g id="line2d_5">
      <g>
       <use xlink:href="#ma685743a89" x="159.935294" y="192.24" style="stroke: #000000; stroke-width: 0.25"/>
      </g>
     </g>
     <g id="text_5">
      <text style="font: 5px 'Arial'; text-anchor: middle" x="159.935294" y="202.818906" transform="rotate(-0, 159.935294, 202.818906)">0.8</text>
     </g>
    </g>
    <g id="xtick_6">
     <g id="line2d_6">
      <g>
       <use xlink:href="#ma685743a89" x="192.758824" y="192.24" style="stroke: #000000; stroke-width: 0.25"/>
      </g>
     </g>
     <g id="text_6">
      <text style="font: 5px 'Arial'; text-anchor: middle" x="192.758824" y="202.818906" transform="rotate(-0, 192.758824, 202.818906)">1.0</text>
     </g>
    </g>
    <g id="text_7">
     <text style="font: 5px 'Arial'; text-anchor: middle" x="110.7" y="211.391562" transform="rotate(-0, 110.7, 211.391562)">False Positive Rate</text>
    </g>
   </g>
   <g id="matplotlib.axis_2">
    <g id="ytick_1">
     <g id="line2d_7">
      <defs>
       <path id="mb8b5ec5677" d="M 0 0 
L -3.5 0 
" style="stroke: #000000; stroke-width: 0.25"/>
      </defs>
      <g>
       <use xlink:href="#mb8b5ec5677" x="27" y="190.609412" style="stroke: #000000; stroke-width: 0.25"/>
      </g>
     </g>
     <g id="text_8">
      <text style="font: 5px 'Arial'; text-anchor: end" x="20" y="192.398865" transform="rotate(-0, 20, 192.398865)">0.0</text>
     </g>
    </g>
    <g id="ytick_2">
     <g id="line2d_8">
      <g>
       <use xlink:href="#mb8b5ec5677" x="27" y="157.997647" style="stroke: #000000; stroke-width: 0.25"/>
      </g>
     </g>
     <g id="text_9">
      <text style="font: 5px 'Arial'; text-anchor: end" x="20" y="159.7871" transform="rotate(-0, 20, 159.7871)">0.2</text>
     </g>
    </g>
    <g id="ytick_3">
     <g id="line2d_9">
      <g>
       <use xlink:href="#mb8b5ec5677" x="27" y="125.385882" style="stroke: #000000; stroke-width: 0.25"/>
      </g>
     </g>
     <g id="text_10">
      <text style="font: 5px 'Arial'; text-anchor: end" x="20" y="127.175335" transform="rotate(-0, 20, 127.175335)">0.4</text>
     </g>
    </g>
    <g id="ytick_4">
     <g id="line2d_10">
      <g>
       <use xlink:href="#mb8b5ec5677" x="27" y="92.774118" style="stroke: #000000; stroke-width: 0.25"/>
      </g>
     </g>
     <g id="text_11">
      <text style="font: 5px 'Arial'; text-anchor: end" x="20" y="94.563571" transform="rotate(-0, 20, 94.563571)">0.6</text>
     </g>
    </g>
    <g id="ytick_5">
     <g id="line2d_11">
      <g>
       <use xlink:href="#mb8b5ec5677" x="27" y="60.162353" style="stroke: #000000; stroke-width: 0.25"/>
      </g>
     </g>
     <g id="text_12">
      <text style="font: 5px 'Arial'; text-anchor: end" x="20" y="61.951806" transform="rotate(-0, 20, 61.951806)">0.8</text>
     </g>
    </g>
    <g id="ytick_6">
     <g id="line2d_12">
      <g>
       <use xlink:href="#mb8b5ec5677" x="27" y="27.550588" style="stroke: #000000; stroke-width: 0.25"/>
      </g>
     </g>
     <g id="text_13">
      <text style="font: 5px 'Arial'; text-anchor: end" x="20" y="29.340041" transform="rotate(-0, 20, 29.340041)">1.0</text>
     </g>
    </g>
    <g id="text_14">
     <text style="font: 5px 'Arial'; text-anchor: middle" x="8.05625" y="109.08" transform="rotate(-90, 8.05625, 109.08)">True Positive Rate</text>
    </g>
   </g>
   <g id="PolyCollection_1">
    <path d="M 28.641176 190.609412 
L 28.641176 190.609412 
L 28.641176 182.021158 
L 28.641176 160.204443 
L 34.75501 136.393337 
L 39.885941 120.652551 
L 50.228959 110.788817 
L 59.895669 98.702486 
L 77.182127 88.279963 
L 91.925663 76.885998 
L 109.311312 67.964412 
L 127.55362 58.005471 
L 143.180866 49.504266 
L 156.544732 40.689913 
L 174.588655 37.357932 
L 182.43384 32.233303 
L 189.900291 30.673018 
L 192.506335 27.550588 
L 192.758824 27.550588 
L 192.758824 27.550588 
L 192.758824 27.550588 
L 192.506335 27.550588 
L 189.900291 25.162819 
L 182.43384 24.785158 
L 174.588655 23.943064 
L 156.544732 24.248549 
L 143.180866 25.970304 
L 127.55362 28.309823 
L 109.311312 31.9869 
L 91.925663 37.203052 
L 77.182127 44.71316 
L 59.895669 50.5786 
L 50.228959 61.463853 
L 39.885941 70.522109 
L 34.75501 88.647387 
L 28.641176 106.586508 
L 28.641176 170.205449 
L 28.641176 190.609412 
z
" clip-path="url(#p6d07210b05)" style="fill: #1f77b4; fill-opacity: 0.2"/>
   </g>
   <g id="line2d_13">
    <path d="M 28.641176 190.609412 
L 28.641176 176.113303 
L 28.641176 133.395475 
L 34.75501 112.520362 
L 39.885941 95.58733 
L 50.228959 86.126335 
L 59.895669 74.640543 
L 77.182127 66.496561 
L 91.925663 57.044525 
L 109.311312 49.975656 
L 127.55362 43.157647 
L 143.180866 37.737285 
L 156.544732 32.469231 
L 174.588655 30.650498 
L 182.43384 28.509231 
L 189.900291 27.917919 
L 192.506335 27.550588 
L 192.758824 27.550588 
" clip-path="url(#p6d07210b05)" style="fill: none; stroke: #1f77b4; stroke-width: 0.25; stroke-linecap: square"/>
   </g>
   <g id="line2d_14">
    <path d="M 28.641176 190.609412 
L 192.758824 27.550588 
" clip-path="url(#p6d07210b05)" style="fill: none; stroke-dasharray: 0.925,0.4; stroke-dashoffset: 0; stroke: #ff0000; stroke-width: 0.25"/>
   </g>
   <g id="patch_3">
    <path d="M 27 192.24 
L 27 25.92 
" style="fill: none; stroke: #000000; stroke-width: 0.25; stroke-linejoin: miter; stroke-linecap: square"/>
   </g>
   <g id="patch_4">
    <path d="M 194.4 192.24 
L 194.4 25.92 
" style="fill: none; stroke: #000000; stroke-width: 0.25; stroke-linejoin: miter; stroke-linecap: square"/>
   </g>
   <g id="patch_5">
    <path d="M 27 192.24 
L 194.4 192.24 
" style="fill: none; stroke: #000000; stroke-width: 0.25; stroke-linejoin: miter; stroke-linecap: square"/>
   </g>
   <g id="patch_6">
    <path d="M 27 25.92 
L 194.4 25.92 
" style="fill: none; stroke: #000000; stroke-width: 0.25; stroke-linejoin: miter; stroke-linecap: square"/>
   </g>
   <g id="legend_1">
    <g id="patch_7">
     <path d="M 137.803125 189.74 
L 190.9 189.74 
Q 191.9 189.74 191.9 188.74 
L 191.9 182.167344 
Q 191.9 181.167344 190.9 181.167344 
L 137.803125 181.167344 
Q 136.803125 181.167344 136.803125 182.167344 
L 136.803125 188.74 
Q 136.803125 189.74 137.803125 189.74 
L 137.803125 189.74 
z
" style="fill: none; opacity: 0.8; stroke: #cccccc; stroke-linejoin: miter"/>
    </g>
    <g id="line2d_15">
     <path d="M 138.803125 184.99625 
L 143.803125 184.99625 
L 148.803125 184.99625 
" style="fill: none; stroke: #1f77b4; stroke-width: 0.25; stroke-linecap: square"/>
    </g>
    <g id="text_15">
     <text style="font: 5px 'Arial'; text-anchor: start" x="152.803125" y="186.74625" transform="rotate(-0, 152.803125, 186.74625)">AUCROC = 0.83</text>
    </g>
   </g>
  </g>
 </g>
 <defs>
  <clipPath id="p6d07210b05">
   <rect x="27" y="25.92" width="167.4" height="166.32"/>
  </clipPath>
 </defs>
</svg>
