<?xml version="1.0" encoding="utf-8" standalone="no"?>
<!DOCTYPE svg PUBLIC "-//W3C//DTD SVG 1.1//EN"
  "http://www.w3.org/Graphics/SVG/1.1/DTD/svg11.dtd">
<svg xmlns:xlink="http://www.w3.org/1999/xlink" width="688.32pt" height="730.8pt" viewBox="0 0 688.32 730.8" xmlns="http://www.w3.org/2000/svg" version="1.1">
 <metadata>
  <rdf:RDF xmlns:dc="http://purl.org/dc/elements/1.1/" xmlns:cc="http://creativecommons.org/ns#" xmlns:rdf="http://www.w3.org/1999/02/22-rdf-syntax-ns#">
   <cc:Work>
    <dc:type rdf:resource="http://purl.org/dc/dcmitype/StillImage"/>
    <dc:date>2024-01-10T14:56:39.154541</dc:date>
    <dc:format>image/svg+xml</dc:format>
    <dc:creator>
     <cc:Agent>
      <dc:title>Matplotlib v3.6.0, https://matplotlib.org/</dc:title>
     </cc:Agent>
    </dc:creator>
   </cc:Work>
  </rdf:RDF>
 </metadata>
 <defs>
  <style type="text/css">*{stroke-linejoin: round; stroke-linecap: butt}</style>
 </defs>
 <g id="figure_1">
  <g id="patch_1">
   <path d="M 0 730.8 
L 688.32 730.8 
L 688.32 0 
L 0 0 
z
" style="fill: #ffffff"/>
  </g>
  <g id="axes_1">
   <g id="patch_2">
    <path d="M 86.04 650.412 
L 619.488 650.412 
L 619.488 87.696 
L 86.04 87.696 
L 86.04 650.412 
z
" style="fill: none"/>
   </g>
   <g id="matplotlib.axis_1">
    <g id="xtick_1">
     <g id="line2d_1">
      <path d="M 86.04 650.412 
L 86.04 87.696 
" clip-path="url(#p6c6d0226a1)" style="fill: none; stroke: #d3d3d3; stroke-linecap: round"/>
     </g>
     <g id="line2d_2"/>
     <g id="text_1">
      <text style="fill: #262626; font: 10px 'Arial'; text-anchor: middle" x="86.04" y="664.569813" transform="rotate(-0 86.04 664.569813)">0.0</text>
     </g>
    </g>
    <g id="xtick_2">
     <g id="line2d_3">
      <path d="M 192.7296 650.412 
L 192.7296 87.696 
" clip-path="url(#p6c6d0226a1)" style="fill: none; stroke: #d3d3d3; stroke-linecap: round"/>
     </g>
     <g id="line2d_4"/>
     <g id="text_2">
      <text style="fill: #262626; font: 10px 'Arial'; text-anchor: middle" x="192.7296" y="664.569813" transform="rotate(-0 192.7296 664.569813)">0.2</text>
     </g>
    </g>
    <g id="xtick_3">
     <g id="line2d_5">
      <path d="M 299.4192 650.412 
L 299.4192 87.696 
" clip-path="url(#p6c6d0226a1)" style="fill: none; stroke: #d3d3d3; stroke-linecap: round"/>
     </g>
     <g id="line2d_6"/>
     <g id="text_3">
      <text style="fill: #262626; font: 10px 'Arial'; text-anchor: middle" x="299.4192" y="664.569813" transform="rotate(-0 299.4192 664.569813)">0.4</text>
     </g>
    </g>
    <g id="xtick_4">
     <g id="line2d_7">
      <path d="M 406.1088 650.412 
L 406.1088 87.696 
" clip-path="url(#p6c6d0226a1)" style="fill: none; stroke: #d3d3d3; stroke-linecap: round"/>
     </g>
     <g id="line2d_8"/>
     <g id="text_4">
      <text style="fill: #262626; font: 10px 'Arial'; text-anchor: middle" x="406.1088" y="664.569813" transform="rotate(-0 406.1088 664.569813)">0.6</text>
     </g>
    </g>
    <g id="xtick_5">
     <g id="line2d_9">
      <path d="M 512.7984 650.412 
L 512.7984 87.696 
" clip-path="url(#p6c6d0226a1)" style="fill: none; stroke: #d3d3d3; stroke-linecap: round"/>
     </g>
     <g id="line2d_10"/>
     <g id="text_5">
      <text style="fill: #262626; font: 10px 'Arial'; text-anchor: middle" x="512.7984" y="664.569813" transform="rotate(-0 512.7984 664.569813)">0.8</text>
     </g>
    </g>
    <g id="xtick_6">
     <g id="line2d_11">
      <path d="M 619.488 650.412 
L 619.488 87.696 
" clip-path="url(#p6c6d0226a1)" style="fill: none; stroke: #d3d3d3; stroke-linecap: round"/>
     </g>
     <g id="line2d_12"/>
     <g id="text_6">
      <text style="fill: #262626; font: 10px 'Arial'; text-anchor: middle" x="619.488" y="664.569813" transform="rotate(-0 619.488 664.569813)">1.0</text>
     </g>
    </g>
    <g id="text_7">
     <text style="fill: #262626; font: 11px 'Arial'; text-anchor: middle" x="352.764" y="678.430906" transform="rotate(-0 352.764 678.430906)">False Positive Rate</text>
    </g>
   </g>
   <g id="matplotlib.axis_2">
    <g id="ytick_1">
     <g id="line2d_13">
      <path d="M 86.04 650.412 
L 619.488 650.412 
" clip-path="url(#p6c6d0226a1)" style="fill: none; stroke: #d3d3d3; stroke-linecap: round"/>
     </g>
     <g id="line2d_14"/>
     <g id="text_8">
      <text style="fill: #262626; font: 10px 'Arial'; text-anchor: end" x="79.04" y="653.990906" transform="rotate(-0 79.04 653.990906)">0.0</text>
     </g>
    </g>
    <g id="ytick_2">
     <g id="line2d_15">
      <path d="M 86.04 537.8688 
L 619.488 537.8688 
" clip-path="url(#p6c6d0226a1)" style="fill: none; stroke: #d3d3d3; stroke-linecap: round"/>
     </g>
     <g id="line2d_16"/>
     <g id="text_9">
      <text style="fill: #262626; font: 10px 'Arial'; text-anchor: end" x="79.04" y="541.447706" transform="rotate(-0 79.04 541.447706)">0.2</text>
     </g>
    </g>
    <g id="ytick_3">
     <g id="line2d_17">
      <path d="M 86.04 425.3256 
L 619.488 425.3256 
" clip-path="url(#p6c6d0226a1)" style="fill: none; stroke: #d3d3d3; stroke-linecap: round"/>
     </g>
     <g id="line2d_18"/>
     <g id="text_10">
      <text style="fill: #262626; font: 10px 'Arial'; text-anchor: end" x="79.04" y="428.904506" transform="rotate(-0 79.04 428.904506)">0.4</text>
     </g>
    </g>
    <g id="ytick_4">
     <g id="line2d_19">
      <path d="M 86.04 312.7824 
L 619.488 312.7824 
" clip-path="url(#p6c6d0226a1)" style="fill: none; stroke: #d3d3d3; stroke-linecap: round"/>
     </g>
     <g id="line2d_20"/>
     <g id="text_11">
      <text style="fill: #262626; font: 10px 'Arial'; text-anchor: end" x="79.04" y="316.361306" transform="rotate(-0 79.04 316.361306)">0.6</text>
     </g>
    </g>
    <g id="ytick_5">
     <g id="line2d_21">
      <path d="M 86.04 200.2392 
L 619.488 200.2392 
" clip-path="url(#p6c6d0226a1)" style="fill: none; stroke: #d3d3d3; stroke-linecap: round"/>
     </g>
     <g id="line2d_22"/>
     <g id="text_12">
      <text style="fill: #262626; font: 10px 'Arial'; text-anchor: end" x="79.04" y="203.818106" transform="rotate(-0 79.04 203.818106)">0.8</text>
     </g>
    </g>
    <g id="ytick_6">
     <g id="line2d_23">
      <path d="M 86.04 87.696 
L 619.488 87.696 
" clip-path="url(#p6c6d0226a1)" style="fill: none; stroke: #d3d3d3; stroke-linecap: round"/>
     </g>
     <g id="line2d_24"/>
     <g id="text_13">
      <text style="fill: #262626; font: 10px 'Arial'; text-anchor: end" x="79.04" y="91.274906" transform="rotate(-0 79.04 91.274906)">1.0</text>
     </g>
    </g>
    <g id="text_14">
     <text style="fill: #262626; font: 11px 'Arial'; text-anchor: middle" x="58.95375" y="369.054" transform="rotate(-90 58.95375 369.054)">True Positive Rate</text>
    </g>
   </g>
   <g id="line2d_25">
    <path d="M 86.04 650.412 
L 121.6032 369.054 
L 121.6032 333.88425 
L 121.6032 263.54475 
L 157.1664 263.54475 
L 157.1664 228.375 
L 192.7296 228.375 
L 228.2928 193.20525 
L 263.856 193.20525 
L 334.9824 193.20525 
L 619.488 87.696 
" clip-path="url(#p6c6d0226a1)" style="fill: none; stroke: #0272a2; stroke-width: 0.25; stroke-linecap: round"/>
   </g>
   <g id="line2d_26">
    <path d="M 86.04 650.412 
L 186.0615 350.2968 
L 186.0615 275.268 
L 186.0615 237.7536 
L 219.402 200.2392 
L 219.402 162.7248 
L 252.7425 162.7248 
L 252.7425 125.2104 
L 319.4235 125.2104 
L 352.764 125.2104 
L 619.488 87.696 
" clip-path="url(#p6c6d0226a1)" style="fill: none; stroke: #9fc377; stroke-width: 0.25; stroke-linecap: round"/>
   </g>
   <g id="line2d_27">
    <path d="M 86.04 650.412 
L 154.872 359.977935 
L 154.872 341.825806 
L 154.872 305.521548 
L 172.08 305.521548 
L 172.08 287.369419 
L 172.08 251.065161 
L 189.288 251.065161 
L 189.288 232.913032 
L 223.704 196.608774 
L 240.912 196.608774 
L 240.912 178.456645 
L 275.328 178.456645 
L 292.536 178.456645 
L 292.536 160.304516 
L 326.952 160.304516 
L 344.16 160.304516 
L 619.488 87.696 
" clip-path="url(#p6c6d0226a1)" style="fill: none; stroke-dasharray: 0.925,0.4; stroke-dashoffset: 0; stroke: #9fc377; stroke-width: 0.25"/>
   </g>
   <g id="line2d_28">
    <path d="M 86.04 650.412 
L 121.6032 403.624562 
L 157.1664 332.685873 
L 186.0615 233.0643 
L 192.7296 229.31286 
L 219.402 182.361244 
L 228.2928 177.965025 
L 252.7425 159.207825 
L 263.856 159.207825 
L 319.4235 159.207825 
L 334.9824 159.207825 
L 352.764 155.910661 
L 619.488 87.696 
" clip-path="url(#p6c6d0226a1)" style="fill: none; stroke-dasharray: 0.925,0.4; stroke-dashoffset: 0; stroke: #9fc377; stroke-width: 0.25"/>
   </g>
   <g id="line2d_29">
    <path d="M 86.04 650.412 
L 619.488 87.696 
" clip-path="url(#p6c6d0226a1)" style="fill: none; stroke-dasharray: 0.25,0.4125; stroke-dashoffset: 0; stroke: #111111; stroke-width: 0.25"/>
   </g>
   <g id="patch_3">
    <path d="M 86.04 650.412 
L 86.04 87.696 
" style="fill: none; stroke: #cccccc; stroke-width: 0.25; stroke-linejoin: miter; stroke-linecap: square"/>
   </g>
   <g id="patch_4">
    <path d="M 619.488 650.412 
L 619.488 87.696 
" style="fill: none; stroke: #cccccc; stroke-width: 0.25; stroke-linejoin: miter; stroke-linecap: square"/>
   </g>
   <g id="patch_5">
    <path d="M 86.04 650.412 
L 619.488 650.412 
" style="fill: none; stroke: #cccccc; stroke-width: 0.25; stroke-linejoin: miter; stroke-linecap: square"/>
   </g>
   <g id="patch_6">
    <path d="M 86.04 87.696 
L 619.488 87.696 
" style="fill: none; stroke: #cccccc; stroke-width: 0.25; stroke-linejoin: miter; stroke-linecap: square"/>
   </g>
   <g id="text_15">
    <text style="fill: #262626; font: 12px 'Arial'; text-anchor: middle" x="352.764" y="81.696" transform="rotate(-0 352.764 81.696)">ROC Curves for RandomForestClassifier</text>
   </g>
   <g id="legend_1">
    <g id="patch_7">
     <path d="M 404.034875 645.412 
L 612.488 645.412 
Q 614.488 645.412 614.488 643.412 
L 614.488 587.340125 
Q 614.488 585.340125 612.488 585.340125 
L 404.034875 585.340125 
Q 402.034875 585.340125 402.034875 587.340125 
L 402.034875 643.412 
Q 402.034875 645.412 404.034875 645.412 
L 404.034875 645.412 
z
" style="fill: none; opacity: 0.8; stroke: #cccccc; stroke-width: 0.3; stroke-linejoin: miter"/>
    </g>
    <g id="line2d_30">
     <path d="M 406.034875 592.997938 
L 416.034875 592.997938 
L 426.034875 592.997938 
" style="fill: none; stroke: #0272a2; stroke-width: 0.25; stroke-linecap: round"/>
    </g>
    <g id="text_16">
     <text style="fill: #262626; font: 10px 'Arial'; text-anchor: start" x="434.034875" y="596.497938" transform="rotate(-0 434.034875 596.497938)">ROC of class 0, AUC = 0.81</text>
    </g>
    <g id="line2d_31">
     <path d="M 406.034875 607.14325 
L 416.034875 607.14325 
L 426.034875 607.14325 
" style="fill: none; stroke: #9fc377; stroke-width: 0.25; stroke-linecap: round"/>
    </g>
    <g id="text_17">
     <text style="fill: #262626; font: 10px 'Arial'; text-anchor: start" x="434.034875" y="610.64325" transform="rotate(-0 434.034875 610.64325)">ROC of class 1, AUC = 0.81</text>
    </g>
    <g id="line2d_32">
     <path d="M 406.034875 621.416688 
L 416.034875 621.416688 
L 426.034875 621.416688 
" style="fill: none; stroke-dasharray: 0.925,0.4; stroke-dashoffset: 0; stroke: #9fc377; stroke-width: 0.25"/>
    </g>
    <g id="text_18">
     <text style="fill: #262626; font: 10px 'Arial'; text-anchor: start" x="434.034875" y="624.916688" transform="rotate(-0 434.034875 624.916688)">micro-average ROC curve, AUC = 0.80</text>
    </g>
    <g id="line2d_33">
     <path d="M 406.034875 635.807313 
L 416.034875 635.807313 
L 426.034875 635.807313 
" style="fill: none; stroke-dasharray: 0.925,0.4; stroke-dashoffset: 0; stroke: #9fc377; stroke-width: 0.25"/>
    </g>
    <g id="text_19">
     <text style="fill: #262626; font: 10px 'Arial'; text-anchor: start" x="434.034875" y="639.307313" transform="rotate(-0 434.034875 639.307313)">macro-average ROC curve, AUC = 0.82</text>
    </g>
   </g>
  </g>
 </g>
 <defs>
  <clipPath id="p6c6d0226a1">
   <rect x="86.04" y="87.696" width="533.448" height="562.716"/>
  </clipPath>
 </defs>
</svg>
