<?xml version="1.0" encoding="utf-8" standalone="no"?>
<!DOCTYPE svg PUBLIC "-//W3C//DTD SVG 1.1//EN"
  "http://www.w3.org/Graphics/SVG/1.1/DTD/svg11.dtd">
<svg xmlns:xlink="http://www.w3.org/1999/xlink" width="72pt" height="72pt" viewBox="0 0 72 72" xmlns="http://www.w3.org/2000/svg" version="1.1">
 <metadata>
  <rdf:RDF xmlns:dc="http://purl.org/dc/elements/1.1/" xmlns:cc="http://creativecommons.org/ns#" xmlns:rdf="http://www.w3.org/1999/02/22-rdf-syntax-ns#">
   <cc:Work>
    <dc:type rdf:resource="http://purl.org/dc/dcmitype/StillImage"/>
    <dc:date>2024-01-14T13:06:57.082532</dc:date>
    <dc:format>image/svg+xml</dc:format>
    <dc:creator>
     <cc:Agent>
      <dc:title>Matplotlib v3.5.1, https://matplotlib.org/</dc:title>
     </cc:Agent>
    </dc:creator>
   </cc:Work>
  </rdf:RDF>
 </metadata>
 <defs>
  <style type="text/css">*{stroke-linejoin: round; stroke-linecap: butt}</style>
 </defs>
 <g id="figure_1">
  <g id="patch_1">
   <path d="M 0 72 
L 72 72 
L 72 0 
L 0 0 
z
" style="fill: #ffffff"/>
  </g>
  <g id="axes_1">
   <g id="patch_2">
    <path d="M 9 64.08 
L 64.8 64.08 
L 64.8 8.64 
L 9 8.64 
L 9 64.08 
z
" style="fill: none"/>
   </g>
   <g id="matplotlib.axis_1">
    <g id="xtick_1">
     <g id="line2d_1">
      <defs>
       <path id="mfab92958c9" d="M 0 0 
L 0 3.5 
" style="stroke: #000000; stroke-width: 0.25"/>
      </defs>
      <g>
       <use xlink:href="#mfab92958c9" x="11.372691" y="64.08" style="stroke: #000000; stroke-width: 0.25"/>
      </g>
     </g>
     <g id="text_1">
      <text style="font: 5px 'Arial'; text-anchor: middle" x="11.372691" y="74.658906" transform="rotate(-0, 11.372691, 74.658906)">0</text>
     </g>
    </g>
    <g id="xtick_2">
     <g id="line2d_2">
      <g>
       <use xlink:href="#mfab92958c9" x="44.766817" y="64.08" style="stroke: #000000; stroke-width: 0.25"/>
      </g>
     </g>
     <g id="text_2">
      <text style="font: 5px 'Arial'; text-anchor: middle" x="44.766817" y="74.658906" transform="rotate(-0, 44.766817, 74.658906)">5</text>
     </g>
    </g>
    <g id="text_3">
     <text style="font: 5px 'Arial'; text-anchor: middle" x="36.9" y="83.2925" transform="rotate(-0, 36.9, 83.2925)">P108-PWY: pyruvate fermentation to propanoate I</text>
    </g>
    <g id="text_4">
     <text style="font: 5px 'Arial'; text-anchor: end" x="64.8" y="82.231562" transform="rotate(-0, 64.8, 82.231562)">1e−5</text>
    </g>
   </g>
   <g id="matplotlib.axis_2">
    <g id="ytick_1">
     <g id="line2d_3">
      <defs>
       <path id="m7da9d96568" d="M 0 0 
L -3.5 0 
" style="stroke: #000000; stroke-width: 0.25"/>
      </defs>
      <g>
       <use xlink:href="#m7da9d96568" x="9" y="61.56" style="stroke: #000000; stroke-width: 0.25"/>
      </g>
     </g>
     <g id="text_5">
      <text style="font: 5px 'Arial'; text-anchor: end" x="2" y="63.349453" transform="rotate(-0, 2, 63.349453)">15</text>
     </g>
    </g>
    <g id="ytick_2">
     <g id="line2d_4">
      <g>
       <use xlink:href="#m7da9d96568" x="9" y="43.56" style="stroke: #000000; stroke-width: 0.25"/>
      </g>
     </g>
     <g id="text_6">
      <text style="font: 5px 'Arial'; text-anchor: end" x="2" y="45.349453" transform="rotate(-0, 2, 45.349453)">20</text>
     </g>
    </g>
    <g id="ytick_3">
     <g id="line2d_5">
      <g>
       <use xlink:href="#m7da9d96568" x="9" y="25.56" style="stroke: #000000; stroke-width: 0.25"/>
      </g>
     </g>
     <g id="text_7">
      <text style="font: 5px 'Arial'; text-anchor: end" x="2" y="27.349453" transform="rotate(-0, 2, 27.349453)">25</text>
     </g>
    </g>
    <g id="text_8">
     <text style="font: 5px 'Arial'; text-anchor: middle" x="-8.554688" y="36.36" transform="rotate(-90, -8.554688, 36.36)">Expressive Communication Score</text>
    </g>
   </g>
   <g id="PathCollection_1">
    <defs>
     <path id="me423500fe2" d="M 0 0.5 
C 0.132602 0.5 0.25979 0.447317 0.353553 0.353553 
C 0.447317 0.25979 0.5 0.132602 0.5 0 
C 0.5 -0.132602 0.447317 -0.25979 0.353553 -0.353553 
C 0.25979 -0.447317 0.132602 -0.5 0 -0.5 
C -0.132602 -0.5 -0.25979 -0.447317 -0.353553 -0.353553 
C -0.447317 -0.25979 -0.5 -0.132602 -0.5 0 
C -0.5 0.132602 -0.447317 0.25979 -0.353553 0.353553 
C -0.25979 0.447317 -0.132602 0.5 0 0.5 
z
" style="stroke: #000000; stroke-opacity: 0.8"/>
    </defs>
    <g clip-path="url(#pc871bb8715)">
     <use xlink:href="#me423500fe2" x="18.223092" y="50.76" style="fill-opacity: 0.8; stroke: #000000; stroke-opacity: 0.8"/>
     <use xlink:href="#me423500fe2" x="25.710322" y="50.76" style="fill-opacity: 0.8; stroke: #000000; stroke-opacity: 0.8"/>
     <use xlink:href="#me423500fe2" x="31.590697" y="50.76" style="fill-opacity: 0.8; stroke: #000000; stroke-opacity: 0.8"/>
     <use xlink:href="#me423500fe2" x="56.396919" y="43.56" style="fill-opacity: 0.8; stroke: #000000; stroke-opacity: 0.8"/>
     <use xlink:href="#me423500fe2" x="27.242116" y="54.36" style="fill-opacity: 0.8; stroke: #000000; stroke-opacity: 0.8"/>
     <use xlink:href="#me423500fe2" x="21.713109" y="25.56" style="fill-opacity: 0.8; stroke: #000000; stroke-opacity: 0.8"/>
     <use xlink:href="#me423500fe2" x="25.90481" y="50.76" style="fill-opacity: 0.8; stroke: #000000; stroke-opacity: 0.8"/>
     <use xlink:href="#me423500fe2" x="18.9573" y="57.96" style="fill-opacity: 0.8; stroke: #000000; stroke-opacity: 0.8"/>
     <use xlink:href="#me423500fe2" x="24.400063" y="43.56" style="fill-opacity: 0.8; stroke: #000000; stroke-opacity: 0.8"/>
     <use xlink:href="#me423500fe2" x="21.356269" y="36.36" style="fill-opacity: 0.8; stroke: #000000; stroke-opacity: 0.8"/>
     <use xlink:href="#me423500fe2" x="13.781062" y="57.96" style="fill-opacity: 0.8; stroke: #000000; stroke-opacity: 0.8"/>
     <use xlink:href="#me423500fe2" x="14.629925" y="29.16" style="fill-opacity: 0.8; stroke: #000000; stroke-opacity: 0.8"/>
     <use xlink:href="#me423500fe2" x="44.626219" y="11.16" style="fill-opacity: 0.8; stroke: #000000; stroke-opacity: 0.8"/>
     <use xlink:href="#me423500fe2" x="19.45748" y="43.56" style="fill-opacity: 0.8; stroke: #000000; stroke-opacity: 0.8"/>
     <use xlink:href="#me423500fe2" x="15.922928" y="54.36" style="fill-opacity: 0.8; stroke: #000000; stroke-opacity: 0.8"/>
     <use xlink:href="#me423500fe2" x="23.168432" y="61.56" style="fill-opacity: 0.8; stroke: #000000; stroke-opacity: 0.8"/>
     <use xlink:href="#me423500fe2" x="25.924984" y="50.76" style="fill-opacity: 0.8; stroke: #000000; stroke-opacity: 0.8"/>
     <use xlink:href="#me423500fe2" x="21.525231" y="39.96" style="fill-opacity: 0.8; stroke: #000000; stroke-opacity: 0.8"/>
     <use xlink:href="#me423500fe2" x="18.427328" y="47.16" style="fill-opacity: 0.8; stroke: #000000; stroke-opacity: 0.8"/>
     <use xlink:href="#me423500fe2" x="12.870837" y="39.96" style="fill-opacity: 0.8; stroke: #000000; stroke-opacity: 0.8"/>
     <use xlink:href="#me423500fe2" x="20.329067" y="47.16" style="fill-opacity: 0.8; stroke: #000000; stroke-opacity: 0.8"/>
     <use xlink:href="#me423500fe2" x="29.975161" y="47.16" style="fill-opacity: 0.8; stroke: #000000; stroke-opacity: 0.8"/>
     <use xlink:href="#me423500fe2" x="55.927085" y="47.16" style="fill-opacity: 0.8; stroke: #000000; stroke-opacity: 0.8"/>
     <use xlink:href="#me423500fe2" x="29.172625" y="50.76" style="fill-opacity: 0.8; stroke: #000000; stroke-opacity: 0.8"/>
     <use xlink:href="#me423500fe2" x="24.086629" y="21.96" style="fill-opacity: 0.8; stroke: #000000; stroke-opacity: 0.8"/>
     <use xlink:href="#me423500fe2" x="12.845598" y="39.96" style="fill-opacity: 0.8; stroke: #000000; stroke-opacity: 0.8"/>
     <use xlink:href="#me423500fe2" x="19.93768" y="50.76" style="fill-opacity: 0.8; stroke: #000000; stroke-opacity: 0.8"/>
     <use xlink:href="#me423500fe2" x="36.459112" y="18.36" style="fill-opacity: 0.8; stroke: #000000; stroke-opacity: 0.8"/>
     <use xlink:href="#me423500fe2" x="15.204855" y="39.96" style="fill-opacity: 0.8; stroke: #000000; stroke-opacity: 0.8"/>
     <use xlink:href="#me423500fe2" x="18.068613" y="39.96" style="fill-opacity: 0.8; stroke: #000000; stroke-opacity: 0.8"/>
     <use xlink:href="#me423500fe2" x="19.868754" y="43.56" style="fill-opacity: 0.8; stroke: #000000; stroke-opacity: 0.8"/>
     <use xlink:href="#me423500fe2" x="12.93422" y="61.56" style="fill-opacity: 0.8; stroke: #000000; stroke-opacity: 0.8"/>
     <use xlink:href="#me423500fe2" x="17.513303" y="50.76" style="fill-opacity: 0.8; stroke: #000000; stroke-opacity: 0.8"/>
     <use xlink:href="#me423500fe2" x="20.716026" y="29.16" style="fill-opacity: 0.8; stroke: #000000; stroke-opacity: 0.8"/>
     <use xlink:href="#me423500fe2" x="15.101975" y="47.16" style="fill-opacity: 0.8; stroke: #000000; stroke-opacity: 0.8"/>
     <use xlink:href="#me423500fe2" x="23.568423" y="43.56" style="fill-opacity: 0.8; stroke: #000000; stroke-opacity: 0.8"/>
     <use xlink:href="#me423500fe2" x="15.676984" y="50.76" style="fill-opacity: 0.8; stroke: #000000; stroke-opacity: 0.8"/>
     <use xlink:href="#me423500fe2" x="21.083304" y="14.76" style="fill-opacity: 0.8; stroke: #000000; stroke-opacity: 0.8"/>
     <use xlink:href="#me423500fe2" x="19.01193" y="47.16" style="fill-opacity: 0.8; stroke: #000000; stroke-opacity: 0.8"/>
     <use xlink:href="#me423500fe2" x="20.675152" y="21.96" style="fill-opacity: 0.8; stroke: #000000; stroke-opacity: 0.8"/>
     <use xlink:href="#me423500fe2" x="13.266172" y="43.56" style="fill-opacity: 0.8; stroke: #000000; stroke-opacity: 0.8"/>
     <use xlink:href="#me423500fe2" x="24.213196" y="21.96" style="fill-opacity: 0.8; stroke: #000000; stroke-opacity: 0.8"/>
     <use xlink:href="#me423500fe2" x="42.330642" y="14.76" style="fill-opacity: 0.8; stroke: #000000; stroke-opacity: 0.8"/>
     <use xlink:href="#me423500fe2" x="22.736774" y="57.96" style="fill-opacity: 0.8; stroke: #000000; stroke-opacity: 0.8"/>
     <use xlink:href="#me423500fe2" x="15.632098" y="47.16" style="fill-opacity: 0.8; stroke: #000000; stroke-opacity: 0.8"/>
     <use xlink:href="#me423500fe2" x="30.414015" y="39.96" style="fill-opacity: 0.8; stroke: #000000; stroke-opacity: 0.8"/>
     <use xlink:href="#me423500fe2" x="31.944069" y="57.96" style="fill-opacity: 0.8; stroke: #000000; stroke-opacity: 0.8"/>
     <use xlink:href="#me423500fe2" x="22.225382" y="29.16" style="fill-opacity: 0.8; stroke: #000000; stroke-opacity: 0.8"/>
     <use xlink:href="#me423500fe2" x="17.212689" y="47.16" style="fill-opacity: 0.8; stroke: #000000; stroke-opacity: 0.8"/>
     <use xlink:href="#me423500fe2" x="14.323405" y="36.36" style="fill-opacity: 0.8; stroke: #000000; stroke-opacity: 0.8"/>
     <use xlink:href="#me423500fe2" x="16.589552" y="47.16" style="fill-opacity: 0.8; stroke: #000000; stroke-opacity: 0.8"/>
     <use xlink:href="#me423500fe2" x="20.158825" y="50.76" style="fill-opacity: 0.8; stroke: #000000; stroke-opacity: 0.8"/>
     <use xlink:href="#me423500fe2" x="16.023231" y="43.56" style="fill-opacity: 0.8; stroke: #000000; stroke-opacity: 0.8"/>
     <use xlink:href="#me423500fe2" x="32.81659" y="11.16" style="fill-opacity: 0.8; stroke: #000000; stroke-opacity: 0.8"/>
     <use xlink:href="#me423500fe2" x="18.793737" y="39.96" style="fill-opacity: 0.8; stroke: #000000; stroke-opacity: 0.8"/>
     <use xlink:href="#me423500fe2" x="14.492255" y="47.16" style="fill-opacity: 0.8; stroke: #000000; stroke-opacity: 0.8"/>
     <use xlink:href="#me423500fe2" x="20.373945" y="36.36" style="fill-opacity: 0.8; stroke: #000000; stroke-opacity: 0.8"/>
     <use xlink:href="#me423500fe2" x="15.812988" y="54.36" style="fill-opacity: 0.8; stroke: #000000; stroke-opacity: 0.8"/>
     <use xlink:href="#me423500fe2" x="30.876736" y="18.36" style="fill-opacity: 0.8; stroke: #000000; stroke-opacity: 0.8"/>
     <use xlink:href="#me423500fe2" x="18.581414" y="50.76" style="fill-opacity: 0.8; stroke: #000000; stroke-opacity: 0.8"/>
     <use xlink:href="#me423500fe2" x="50.618881" y="57.96" style="fill-opacity: 0.8; stroke: #000000; stroke-opacity: 0.8"/>
     <use xlink:href="#me423500fe2" x="23.062233" y="18.36" style="fill-opacity: 0.8; stroke: #000000; stroke-opacity: 0.8"/>
     <use xlink:href="#me423500fe2" x="34.400757" y="32.76" style="fill-opacity: 0.8; stroke: #000000; stroke-opacity: 0.8"/>
     <use xlink:href="#me423500fe2" x="31.047502" y="32.76" style="fill-opacity: 0.8; stroke: #000000; stroke-opacity: 0.8"/>
     <use xlink:href="#me423500fe2" x="25.792672" y="32.76" style="fill-opacity: 0.8; stroke: #000000; stroke-opacity: 0.8"/>
     <use xlink:href="#me423500fe2" x="26.473448" y="25.56" style="fill-opacity: 0.8; stroke: #000000; stroke-opacity: 0.8"/>
     <use xlink:href="#me423500fe2" x="12.473181" y="29.16" style="fill-opacity: 0.8; stroke: #000000; stroke-opacity: 0.8"/>
     <use xlink:href="#me423500fe2" x="28.989827" y="39.96" style="fill-opacity: 0.8; stroke: #000000; stroke-opacity: 0.8"/>
     <use xlink:href="#me423500fe2" x="38.367585" y="21.96" style="fill-opacity: 0.8; stroke: #000000; stroke-opacity: 0.8"/>
     <use xlink:href="#me423500fe2" x="19.432164" y="29.16" style="fill-opacity: 0.8; stroke: #000000; stroke-opacity: 0.8"/>
     <use xlink:href="#me423500fe2" x="16.367294" y="36.36" style="fill-opacity: 0.8; stroke: #000000; stroke-opacity: 0.8"/>
     <use xlink:href="#me423500fe2" x="16.331294" y="25.56" style="fill-opacity: 0.8; stroke: #000000; stroke-opacity: 0.8"/>
     <use xlink:href="#me423500fe2" x="17.779978" y="18.36" style="fill-opacity: 0.8; stroke: #000000; stroke-opacity: 0.8"/>
     <use xlink:href="#me423500fe2" x="28.550281" y="32.76" style="fill-opacity: 0.8; stroke: #000000; stroke-opacity: 0.8"/>
     <use xlink:href="#me423500fe2" x="26.979696" y="32.76" style="fill-opacity: 0.8; stroke: #000000; stroke-opacity: 0.8"/>
     <use xlink:href="#me423500fe2" x="24.299091" y="50.76" style="fill-opacity: 0.8; stroke: #000000; stroke-opacity: 0.8"/>
     <use xlink:href="#me423500fe2" x="11.536364" y="50.76" style="fill-opacity: 0.8; stroke: #000000; stroke-opacity: 0.8"/>
     <use xlink:href="#me423500fe2" x="29.634939" y="25.56" style="fill-opacity: 0.8; stroke: #000000; stroke-opacity: 0.8"/>
     <use xlink:href="#me423500fe2" x="32.474777" y="50.76" style="fill-opacity: 0.8; stroke: #000000; stroke-opacity: 0.8"/>
     <use xlink:href="#me423500fe2" x="22.576626" y="50.76" style="fill-opacity: 0.8; stroke: #000000; stroke-opacity: 0.8"/>
     <use xlink:href="#me423500fe2" x="26.137371" y="32.76" style="fill-opacity: 0.8; stroke: #000000; stroke-opacity: 0.8"/>
     <use xlink:href="#me423500fe2" x="21.118431" y="50.76" style="fill-opacity: 0.8; stroke: #000000; stroke-opacity: 0.8"/>
     <use xlink:href="#me423500fe2" x="59.456387" y="39.96" style="fill-opacity: 0.8; stroke: #000000; stroke-opacity: 0.8"/>
     <use xlink:href="#me423500fe2" x="20.404129" y="61.56" style="fill-opacity: 0.8; stroke: #000000; stroke-opacity: 0.8"/>
     <use xlink:href="#me423500fe2" x="23.289115" y="29.16" style="fill-opacity: 0.8; stroke: #000000; stroke-opacity: 0.8"/>
     <use xlink:href="#me423500fe2" x="37.691404" y="50.76" style="fill-opacity: 0.8; stroke: #000000; stroke-opacity: 0.8"/>
     <use xlink:href="#me423500fe2" x="36.158338" y="39.96" style="fill-opacity: 0.8; stroke: #000000; stroke-opacity: 0.8"/>
     <use xlink:href="#me423500fe2" x="15.758123" y="50.76" style="fill-opacity: 0.8; stroke: #000000; stroke-opacity: 0.8"/>
     <use xlink:href="#me423500fe2" x="29.788071" y="18.36" style="fill-opacity: 0.8; stroke: #000000; stroke-opacity: 0.8"/>
     <use xlink:href="#me423500fe2" x="16.869838" y="50.76" style="fill-opacity: 0.8; stroke: #000000; stroke-opacity: 0.8"/>
     <use xlink:href="#me423500fe2" x="28.085849" y="36.36" style="fill-opacity: 0.8; stroke: #000000; stroke-opacity: 0.8"/>
     <use xlink:href="#me423500fe2" x="24.051966" y="47.16" style="fill-opacity: 0.8; stroke: #000000; stroke-opacity: 0.8"/>
     <use xlink:href="#me423500fe2" x="12.032348" y="39.96" style="fill-opacity: 0.8; stroke: #000000; stroke-opacity: 0.8"/>
     <use xlink:href="#me423500fe2" x="21.085508" y="39.96" style="fill-opacity: 0.8; stroke: #000000; stroke-opacity: 0.8"/>
     <use xlink:href="#me423500fe2" x="39.793099" y="18.36" style="fill-opacity: 0.8; stroke: #000000; stroke-opacity: 0.8"/>
     <use xlink:href="#me423500fe2" x="62.263636" y="29.16" style="fill-opacity: 0.8; stroke: #000000; stroke-opacity: 0.8"/>
     <use xlink:href="#me423500fe2" x="14.842039" y="36.36" style="fill-opacity: 0.8; stroke: #000000; stroke-opacity: 0.8"/>
     <use xlink:href="#me423500fe2" x="31.92257" y="32.76" style="fill-opacity: 0.8; stroke: #000000; stroke-opacity: 0.8"/>
     <use xlink:href="#me423500fe2" x="22.12232" y="50.76" style="fill-opacity: 0.8; stroke: #000000; stroke-opacity: 0.8"/>
     <use xlink:href="#me423500fe2" x="16.020086" y="39.96" style="fill-opacity: 0.8; stroke: #000000; stroke-opacity: 0.8"/>
     <use xlink:href="#me423500fe2" x="23.075127" y="54.36" style="fill-opacity: 0.8; stroke: #000000; stroke-opacity: 0.8"/>
     <use xlink:href="#me423500fe2" x="36.47627" y="50.76" style="fill-opacity: 0.8; stroke: #000000; stroke-opacity: 0.8"/>
    </g>
   </g>
   <g id="PolyCollection_1">
    <path d="M 11.536364 40.421563 
L 11.536364 47.332115 
L 12.04876 47.087153 
L 12.561157 46.84219 
L 13.073554 46.62374 
L 13.58595 46.417835 
L 14.098347 46.188599 
L 14.610744 45.987873 
L 15.12314 45.745381 
L 15.635537 45.593547 
L 16.147934 45.375485 
L 16.660331 45.108638 
L 17.172727 44.884863 
L 17.685124 44.62948 
L 18.197521 44.374374 
L 18.709917 44.162826 
L 19.222314 44.007702 
L 19.734711 43.853859 
L 20.247107 43.722008 
L 20.759504 43.54373 
L 21.271901 43.366423 
L 21.784298 43.200469 
L 22.296694 43.079639 
L 22.809091 42.925235 
L 23.321488 42.815227 
L 23.833884 42.691432 
L 24.346281 42.596583 
L 24.858678 42.537308 
L 25.371074 42.454033 
L 25.883471 42.367272 
L 26.395868 42.3252 
L 26.908264 42.254452 
L 27.420661 42.201579 
L 27.933058 42.117729 
L 28.445455 42.023808 
L 28.957851 41.867384 
L 29.470248 41.774924 
L 29.982645 41.744198 
L 30.495041 41.720624 
L 31.007438 41.69705 
L 31.519835 41.673415 
L 32.032231 41.648645 
L 32.544628 41.626126 
L 33.057025 41.530345 
L 33.569421 41.421772 
L 34.081818 41.32703 
L 34.594215 41.352719 
L 35.106612 41.283415 
L 35.619008 41.183323 
L 36.131405 41.129655 
L 36.643802 41.057059 
L 37.156198 41.027351 
L 37.668595 40.997643 
L 38.180992 40.967934 
L 38.693388 40.938226 
L 39.205785 40.930695 
L 39.718182 40.897206 
L 40.230579 40.86136 
L 40.742975 40.819393 
L 41.255372 40.789684 
L 41.767769 40.760149 
L 42.280165 40.73146 
L 42.792562 40.702805 
L 43.304959 40.685243 
L 43.817355 40.666869 
L 44.329752 40.649136 
L 44.842149 40.633381 
L 45.354545 40.616705 
L 45.866942 40.59857 
L 46.379339 40.580435 
L 46.891736 40.5623 
L 47.404132 40.517423 
L 47.916529 40.479859 
L 48.428926 40.469687 
L 48.941322 40.427659 
L 49.453719 40.378099 
L 49.966116 40.328377 
L 50.478512 40.304168 
L 50.990909 40.280438 
L 51.503306 40.256707 
L 52.015702 40.232976 
L 52.528099 40.209245 
L 53.040496 40.210189 
L 53.552893 40.228566 
L 54.065289 40.204352 
L 54.577686 40.168417 
L 55.090083 40.131831 
L 55.602479 40.094712 
L 56.114876 40.057349 
L 56.627273 40.020189 
L 57.139669 40.019256 
L 57.652066 40.018323 
L 58.164463 39.995867 
L 58.67686 39.946775 
L 59.189256 39.897577 
L 59.701653 39.878395 
L 60.21405 39.864362 
L 60.726446 39.850329 
L 61.238843 39.836296 
L 61.75124 39.822263 
L 62.263636 39.80823 
L 62.263636 19.272307 
L 62.263636 19.272307 
L 61.75124 19.559633 
L 61.238843 19.847114 
L 60.726446 20.134842 
L 60.21405 20.410427 
L 59.701653 20.659062 
L 59.189256 20.907696 
L 58.67686 21.156357 
L 58.164463 21.427332 
L 57.652066 21.719595 
L 57.139669 22.000388 
L 56.627273 22.287973 
L 56.114876 22.575557 
L 55.602479 22.863142 
L 55.090083 23.15088 
L 54.577686 23.439309 
L 54.065289 23.727738 
L 53.552893 24.016167 
L 53.040496 24.300546 
L 52.528099 24.526225 
L 52.015702 24.751904 
L 51.503306 24.977583 
L 50.990909 25.203262 
L 50.478512 25.428941 
L 49.966116 25.700154 
L 49.453719 26.000311 
L 48.941322 26.300762 
L 48.428926 26.601213 
L 47.916529 26.901663 
L 47.404132 27.202114 
L 46.891736 27.502565 
L 46.379339 27.803015 
L 45.866942 28.103466 
L 45.354545 28.376729 
L 44.842149 28.651464 
L 44.329752 28.891053 
L 43.817355 29.130641 
L 43.304959 29.37023 
L 42.792562 29.610011 
L 42.280165 29.850677 
L 41.767769 30.091344 
L 41.255372 30.33201 
L 40.742975 30.592027 
L 40.230579 30.863926 
L 39.718182 31.135826 
L 39.205785 31.39528 
L 38.693388 31.640506 
L 38.180992 31.954276 
L 37.668595 32.226824 
L 37.156198 32.49974 
L 36.643802 32.77044 
L 36.131405 32.995995 
L 35.619008 33.268091 
L 35.106612 33.475393 
L 34.594215 33.75008 
L 34.081818 34.029619 
L 33.569421 34.271485 
L 33.057025 34.480091 
L 32.544628 34.685505 
L 32.032231 34.889737 
L 31.519835 35.097058 
L 31.007438 35.375269 
L 30.495041 35.600894 
L 29.982645 35.817342 
L 29.470248 36.018713 
L 28.957851 36.261894 
L 28.445455 36.466492 
L 27.933058 36.684583 
L 27.420661 36.889724 
L 26.908264 37.066621 
L 26.395868 37.254212 
L 25.883471 37.439001 
L 25.371074 37.558316 
L 24.858678 37.740683 
L 24.346281 37.968204 
L 23.833884 38.132583 
L 23.321488 38.328462 
L 22.809091 38.523391 
L 22.296694 38.630686 
L 21.784298 38.673066 
L 21.271901 38.844924 
L 20.759504 38.959915 
L 20.247107 39.086814 
L 19.734711 39.224973 
L 19.222314 39.319199 
L 18.709917 39.427515 
L 18.197521 39.542272 
L 17.685124 39.59276 
L 17.172727 39.679464 
L 16.660331 39.777574 
L 16.147934 39.882111 
L 15.635537 39.920086 
L 15.12314 39.966379 
L 14.610744 40.027131 
L 14.098347 40.144241 
L 13.58595 40.245433 
L 13.073554 40.295305 
L 12.561157 40.308392 
L 12.04876 40.352616 
L 11.536364 40.421563 
z
" clip-path="url(#pc871bb8715)" style="fill: #ff0000; fill-opacity: 0.15"/>
   </g>
   <g id="line2d_6">
    <path d="M 11.536364 43.670001 
L 12.04876 43.535075 
L 12.561157 43.400149 
L 13.073554 43.265224 
L 13.58595 43.130298 
L 14.098347 42.995372 
L 14.610744 42.860447 
L 15.12314 42.725521 
L 15.635537 42.590595 
L 16.147934 42.45567 
L 16.660331 42.320744 
L 17.172727 42.185818 
L 17.685124 42.050893 
L 18.197521 41.915967 
L 18.709917 41.781041 
L 19.222314 41.646116 
L 19.734711 41.51119 
L 20.247107 41.376264 
L 20.759504 41.241339 
L 21.271901 41.106413 
L 21.784298 40.971487 
L 22.296694 40.836562 
L 22.809091 40.701636 
L 23.321488 40.56671 
L 23.833884 40.431785 
L 24.346281 40.296859 
L 24.858678 40.161933 
L 25.371074 40.027008 
L 25.883471 39.892082 
L 26.395868 39.757156 
L 26.908264 39.622231 
L 27.420661 39.487305 
L 27.933058 39.352379 
L 28.445455 39.217454 
L 28.957851 39.082528 
L 29.470248 38.947602 
L 29.982645 38.812677 
L 30.495041 38.677751 
L 31.007438 38.542825 
L 31.519835 38.4079 
L 32.032231 38.272974 
L 32.544628 38.138048 
L 33.057025 38.003122 
L 33.569421 37.868197 
L 34.081818 37.733271 
L 34.594215 37.598345 
L 35.106612 37.46342 
L 35.619008 37.328494 
L 36.131405 37.193568 
L 36.643802 37.058643 
L 37.156198 36.923717 
L 37.668595 36.788791 
L 38.180992 36.653866 
L 38.693388 36.51894 
L 39.205785 36.384014 
L 39.718182 36.249089 
L 40.230579 36.114163 
L 40.742975 35.979237 
L 41.255372 35.844312 
L 41.767769 35.709386 
L 42.280165 35.57446 
L 42.792562 35.439535 
L 43.304959 35.304609 
L 43.817355 35.169683 
L 44.329752 35.034758 
L 44.842149 34.899832 
L 45.354545 34.764906 
L 45.866942 34.629981 
L 46.379339 34.495055 
L 46.891736 34.360129 
L 47.404132 34.225204 
L 47.916529 34.090278 
L 48.428926 33.955352 
L 48.941322 33.820427 
L 49.453719 33.685501 
L 49.966116 33.550575 
L 50.478512 33.41565 
L 50.990909 33.280724 
L 51.503306 33.145798 
L 52.015702 33.010873 
L 52.528099 32.875947 
L 53.040496 32.741021 
L 53.552893 32.606096 
L 54.065289 32.47117 
L 54.577686 32.336244 
L 55.090083 32.201319 
L 55.602479 32.066393 
L 56.114876 31.931467 
L 56.627273 31.796542 
L 57.139669 31.661616 
L 57.652066 31.52669 
L 58.164463 31.391765 
L 58.67686 31.256839 
L 59.189256 31.121913 
L 59.701653 30.986988 
L 60.21405 30.852062 
L 60.726446 30.717136 
L 61.238843 30.582211 
L 61.75124 30.447285 
L 62.263636 30.312359 
" clip-path="url(#pc871bb8715)" style="fill: none; stroke: #ff0000; stroke-width: 0.375; stroke-linecap: square"/>
   </g>
   <g id="patch_3">
    <path d="M 9 64.08 
L 9 8.64 
" style="fill: none; stroke: #000000; stroke-width: 0.25; stroke-linejoin: miter; stroke-linecap: square"/>
   </g>
   <g id="patch_4">
    <path d="M 64.8 64.08 
L 64.8 8.64 
" style="fill: none; stroke: #000000; stroke-width: 0.25; stroke-linejoin: miter; stroke-linecap: square"/>
   </g>
   <g id="patch_5">
    <path d="M 9 64.08 
L 64.8 64.08 
" style="fill: none; stroke: #000000; stroke-width: 0.25; stroke-linejoin: miter; stroke-linecap: square"/>
   </g>
   <g id="patch_6">
    <path d="M 9 8.64 
L 64.8 8.64 
" style="fill: none; stroke: #000000; stroke-width: 0.25; stroke-linejoin: miter; stroke-linecap: square"/>
   </g>
  </g>
 </g>
 <defs>
  <clipPath id="pc871bb8715">
   <rect x="9" y="8.64" width="55.8" height="55.44"/>
  </clipPath>
 </defs>
</svg>
