<?xml version="1.0" encoding="utf-8" standalone="no"?>
<!DOCTYPE svg PUBLIC "-//W3C//DTD SVG 1.1//EN"
  "http://www.w3.org/Graphics/SVG/1.1/DTD/svg11.dtd">
<svg xmlns:xlink="http://www.w3.org/1999/xlink" width="216pt" height="216pt" viewBox="0 0 216 216" xmlns="http://www.w3.org/2000/svg" version="1.1">
 <metadata>
  <rdf:RDF xmlns:dc="http://purl.org/dc/elements/1.1/" xmlns:cc="http://creativecommons.org/ns#" xmlns:rdf="http://www.w3.org/1999/02/22-rdf-syntax-ns#">
   <cc:Work>
    <dc:type rdf:resource="http://purl.org/dc/dcmitype/StillImage"/>
    <dc:date>2023-12-15T12:59:08.005882</dc:date>
    <dc:format>image/svg+xml</dc:format>
    <dc:creator>
     <cc:Agent>
      <dc:title>Matplotlib v3.6.0, https://matplotlib.org/</dc:title>
     </cc:Agent>
    </dc:creator>
   </cc:Work>
  </rdf:RDF>
 </metadata>
 <defs>
  <style type="text/css">*{stroke-linejoin: round; stroke-linecap: butt}</style>
 </defs>
 <g id="figure_1">
  <g id="patch_1">
   <path d="M 0 216 
L 216 216 
L 216 0 
L 0 0 
z
" style="fill: #ffffff"/>
  </g>
  <g id="axes_1">
   <g id="patch_2">
    <path d="M 27 192.24 
L 194.4 192.24 
L 194.4 25.92 
L 27 25.92 
L 27 192.24 
z
" style="fill: none"/>
   </g>
   <g id="matplotlib.axis_1">
    <g id="xtick_1">
     <g id="line2d_1">
      <defs>
       <path id="mb4ae7ffc63" d="M 0 0 
L 0 6 
" style="stroke: #000000; stroke-width: 0.25"/>
      </defs>
      <g>
       <use xlink:href="#mb4ae7ffc63" x="75.825" y="192.24" style="stroke: #000000; stroke-width: 0.25"/>
      </g>
     </g>
     <g id="text_1">
      <text style="font: 7px 'Arial'" transform="translate(45.128058 237.496116) rotate(-45)">Malnourished</text>
     </g>
    </g>
    <g id="xtick_2">
     <g id="line2d_2">
      <g>
       <use xlink:href="#mb4ae7ffc63" x="145.575" y="192.24" style="stroke: #000000; stroke-width: 0.25"/>
      </g>
     </g>
     <g id="text_2">
      <text style="font: 7px 'Arial'" transform="translate(111.667683 240.706491) rotate(-45)">Well-nourished</text>
     </g>
    </g>
    <g id="text_3">
     <text style="font: 7px 'Arial'; text-anchor: middle" x="110.7" y="250.700722" transform="rotate(-0 110.7 250.700722)">Condition</text>
    </g>
   </g>
   <g id="matplotlib.axis_2">
    <g id="ytick_1">
     <g id="line2d_3">
      <defs>
       <path id="mbbc59d0d86" d="M 0 0 
L -6 0 
" style="stroke: #000000; stroke-width: 0.25"/>
      </defs>
      <g>
       <use xlink:href="#mbbc59d0d86" x="27" y="192.24" style="stroke: #000000; stroke-width: 0.25"/>
      </g>
     </g>
     <g id="text_4">
      <text style="font: 7px 'Arial'; text-anchor: end" x="15" y="194.745234" transform="rotate(-0 15 194.745234)">0.0</text>
     </g>
    </g>
    <g id="ytick_2">
     <g id="line2d_4">
      <g>
       <use xlink:href="#mbbc59d0d86" x="27" y="160.56" style="stroke: #000000; stroke-width: 0.25"/>
      </g>
     </g>
     <g id="text_5">
      <text style="font: 7px 'Arial'; text-anchor: end" x="15" y="163.065234" transform="rotate(-0 15 163.065234)">0.2</text>
     </g>
    </g>
    <g id="ytick_3">
     <g id="line2d_5">
      <g>
       <use xlink:href="#mbbc59d0d86" x="27" y="128.88" style="stroke: #000000; stroke-width: 0.25"/>
      </g>
     </g>
     <g id="text_6">
      <text style="font: 7px 'Arial'; text-anchor: end" x="15" y="131.385234" transform="rotate(-0 15 131.385234)">0.4</text>
     </g>
    </g>
    <g id="ytick_4">
     <g id="line2d_6">
      <g>
       <use xlink:href="#mbbc59d0d86" x="27" y="97.2" style="stroke: #000000; stroke-width: 0.25"/>
      </g>
     </g>
     <g id="text_7">
      <text style="font: 7px 'Arial'; text-anchor: end" x="15" y="99.705234" transform="rotate(-0 15 99.705234)">0.6</text>
     </g>
    </g>
    <g id="ytick_5">
     <g id="line2d_7">
      <g>
       <use xlink:href="#mbbc59d0d86" x="27" y="65.52" style="stroke: #000000; stroke-width: 0.25"/>
      </g>
     </g>
     <g id="text_8">
      <text style="font: 7px 'Arial'; text-anchor: end" x="15" y="68.025234" transform="rotate(-0 15 68.025234)">0.8</text>
     </g>
    </g>
    <g id="ytick_6">
     <g id="line2d_8">
      <g>
       <use xlink:href="#mbbc59d0d86" x="27" y="33.84" style="stroke: #000000; stroke-width: 0.25"/>
      </g>
     </g>
     <g id="text_9">
      <text style="font: 7px 'Arial'; text-anchor: end" x="15" y="36.345234" transform="rotate(-0 15 36.345234)">1.0</text>
     </g>
    </g>
    <g id="text_10">
     <text style="font: 7px 'Arial'; text-anchor: middle" x="-0.12125" y="109.08" transform="rotate(-90 -0.12125 109.08)">Relative abundance</text>
    </g>
   </g>
   <g id="patch_3">
    <path d="M 44.4375 192.24 
L 107.2125 192.24 
L 107.2125 84.544472 
L 44.4375 84.544472 
z
" clip-path="url(#p4c1acf8521)" style="fill: #1f77b4"/>
   </g>
   <g id="patch_4">
    <path d="M 114.1875 192.24 
L 176.9625 192.24 
L 176.9625 85.082823 
L 114.1875 85.082823 
z
" clip-path="url(#p4c1acf8521)" style="fill: #1f77b4"/>
   </g>
   <g id="patch_5">
    <path d="M 44.4375 84.544472 
L 107.2125 84.544472 
L 107.2125 81.598352 
L 44.4375 81.598352 
z
" clip-path="url(#p4c1acf8521)" style="fill: #aec7e8"/>
   </g>
   <g id="patch_6">
    <path d="M 114.1875 85.082823 
L 176.9625 85.082823 
L 176.9625 81.59883 
L 114.1875 81.59883 
z
" clip-path="url(#p4c1acf8521)" style="fill: #aec7e8"/>
   </g>
   <g id="patch_7">
    <path d="M 44.4375 81.598352 
L 107.2125 81.598352 
L 107.2125 78.677386 
L 44.4375 78.677386 
z
" clip-path="url(#p4c1acf8521)" style="fill: #ff7f0e"/>
   </g>
   <g id="patch_8">
    <path d="M 114.1875 81.59883 
L 176.9625 81.59883 
L 176.9625 78.469628 
L 114.1875 78.469628 
z
" clip-path="url(#p4c1acf8521)" style="fill: #ff7f0e"/>
   </g>
   <g id="patch_9">
    <path d="M 44.4375 78.677386 
L 107.2125 78.677386 
L 107.2125 75.756421 
L 44.4375 75.756421 
z
" clip-path="url(#p4c1acf8521)" style="fill: #ffbb78"/>
   </g>
   <g id="patch_10">
    <path d="M 114.1875 78.469628 
L 176.9625 78.469628 
L 176.9625 75.340426 
L 114.1875 75.340426 
z
" clip-path="url(#p4c1acf8521)" style="fill: #ffbb78"/>
   </g>
   <g id="patch_11">
    <path d="M 44.4375 75.756421 
L 107.2125 75.756421 
L 107.2125 72.773229 
L 44.4375 72.773229 
z
" clip-path="url(#p4c1acf8521)" style="fill: #2ca02c"/>
   </g>
   <g id="patch_12">
    <path d="M 114.1875 75.340426 
L 176.9625 75.340426 
L 176.9625 72.566433 
L 114.1875 72.566433 
z
" clip-path="url(#p4c1acf8521)" style="fill: #2ca02c"/>
   </g>
   <g id="patch_13">
    <path d="M 44.4375 72.773229 
L 107.2125 72.773229 
L 107.2125 69.816766 
L 44.4375 69.816766 
z
" clip-path="url(#p4c1acf8521)" style="fill: #98df8a"/>
   </g>
   <g id="patch_14">
    <path d="M 114.1875 72.566433 
L 176.9625 72.566433 
L 176.9625 69.71572 
L 114.1875 69.71572 
z
" clip-path="url(#p4c1acf8521)" style="fill: #98df8a"/>
   </g>
   <g id="patch_15">
    <path d="M 44.4375 69.816766 
L 107.2125 69.816766 
L 107.2125 67.041634 
L 44.4375 67.041634 
z
" clip-path="url(#p4c1acf8521)" style="fill: #d62728"/>
   </g>
   <g id="patch_16">
    <path d="M 114.1875 69.71572 
L 176.9625 69.71572 
L 176.9625 66.52181 
L 114.1875 66.52181 
z
" clip-path="url(#p4c1acf8521)" style="fill: #d62728"/>
   </g>
   <g id="patch_17">
    <path d="M 44.4375 67.041634 
L 107.2125 67.041634 
L 107.2125 64.186742 
L 44.4375 64.186742 
z
" clip-path="url(#p4c1acf8521)" style="fill: #ff9896"/>
   </g>
   <g id="patch_18">
    <path d="M 114.1875 66.52181 
L 176.9625 66.52181 
L 176.9625 63.822115 
L 114.1875 63.822115 
z
" clip-path="url(#p4c1acf8521)" style="fill: #ff9896"/>
   </g>
   <g id="patch_19">
    <path d="M 44.4375 64.186742 
L 107.2125 64.186742 
L 107.2125 61.48526 
L 44.4375 61.48526 
z
" clip-path="url(#p4c1acf8521)" style="fill: #9467bd"/>
   </g>
   <g id="patch_20">
    <path d="M 114.1875 63.822115 
L 176.9625 63.822115 
L 176.9625 61.230925 
L 114.1875 61.230925 
z
" clip-path="url(#p4c1acf8521)" style="fill: #9467bd"/>
   </g>
   <g id="patch_21">
    <path d="M 44.4375 61.48526 
L 107.2125 61.48526 
L 107.2125 58.850689 
L 44.4375 58.850689 
z
" clip-path="url(#p4c1acf8521)" style="fill: #c5b0d5"/>
   </g>
   <g id="patch_22">
    <path d="M 114.1875 61.230925 
L 176.9625 61.230925 
L 176.9625 58.454852 
L 114.1875 58.454852 
z
" clip-path="url(#p4c1acf8521)" style="fill: #c5b0d5"/>
   </g>
   <g id="patch_23">
    <path d="M 44.4375 58.850689 
L 107.2125 58.850689 
L 107.2125 56.262083 
L 44.4375 56.262083 
z
" clip-path="url(#p4c1acf8521)" style="fill: #8c564b"/>
   </g>
   <g id="patch_24">
    <path d="M 114.1875 58.454852 
L 176.9625 58.454852 
L 176.9625 55.757685 
L 114.1875 55.757685 
z
" clip-path="url(#p4c1acf8521)" style="fill: #8c564b"/>
   </g>
   <g id="patch_25">
    <path d="M 44.4375 56.262083 
L 107.2125 56.262083 
L 107.2125 53.735299 
L 44.4375 53.735299 
z
" clip-path="url(#p4c1acf8521)" style="fill: #c49c94"/>
   </g>
   <g id="patch_26">
    <path d="M 114.1875 55.757685 
L 176.9625 55.757685 
L 176.9625 53.198116 
L 114.1875 53.198116 
z
" clip-path="url(#p4c1acf8521)" style="fill: #c49c94"/>
   </g>
   <g id="patch_27">
    <path d="M 44.4375 53.735299 
L 107.2125 53.735299 
L 107.2125 51.237142 
L 44.4375 51.237142 
z
" clip-path="url(#p4c1acf8521)" style="fill: #e377c2"/>
   </g>
   <g id="patch_28">
    <path d="M 114.1875 53.198116 
L 176.9625 53.198116 
L 176.9625 50.657646 
L 114.1875 50.657646 
z
" clip-path="url(#p4c1acf8521)" style="fill: #e377c2"/>
   </g>
   <g id="patch_29">
    <path d="M 44.4375 51.237142 
L 107.2125 51.237142 
L 107.2125 48.835398 
L 44.4375 48.835398 
z
" clip-path="url(#p4c1acf8521)" style="fill: #f7b6d2"/>
   </g>
   <g id="patch_30">
    <path d="M 114.1875 50.657646 
L 176.9625 50.657646 
L 176.9625 47.683283 
L 114.1875 47.683283 
z
" clip-path="url(#p4c1acf8521)" style="fill: #f7b6d2"/>
   </g>
   <g id="patch_31">
    <path d="M 44.4375 48.835398 
L 107.2125 48.835398 
L 107.2125 46.312101 
L 44.4375 46.312101 
z
" clip-path="url(#p4c1acf8521)" style="fill: #7f7f7f"/>
   </g>
   <g id="patch_32">
    <path d="M 114.1875 47.683283 
L 176.9625 47.683283 
L 176.9625 45.36538 
L 114.1875 45.36538 
z
" clip-path="url(#p4c1acf8521)" style="fill: #7f7f7f"/>
   </g>
   <g id="patch_33">
    <path d="M 44.4375 46.312101 
L 107.2125 46.312101 
L 107.2125 43.788803 
L 44.4375 43.788803 
z
" clip-path="url(#p4c1acf8521)" style="fill: #c7c7c7"/>
   </g>
   <g id="patch_34">
    <path d="M 114.1875 45.36538 
L 176.9625 45.36538 
L 176.9625 43.047477 
L 114.1875 43.047477 
z
" clip-path="url(#p4c1acf8521)" style="fill: #c7c7c7"/>
   </g>
   <g id="patch_35">
    <path d="M 44.4375 43.788803 
L 107.2125 43.788803 
L 107.2125 41.278026 
L 44.4375 41.278026 
z
" clip-path="url(#p4c1acf8521)" style="fill: #bcbd22"/>
   </g>
   <g id="patch_36">
    <path d="M 114.1875 43.047477 
L 176.9625 43.047477 
L 176.9625 40.669806 
L 114.1875 40.669806 
z
" clip-path="url(#p4c1acf8521)" style="fill: #bcbd22"/>
   </g>
   <g id="patch_37">
    <path d="M 44.4375 41.278026 
L 107.2125 41.278026 
L 107.2125 38.77468 
L 44.4375 38.77468 
z
" clip-path="url(#p4c1acf8521)" style="fill: #dbdb8d"/>
   </g>
   <g id="patch_38">
    <path d="M 114.1875 40.669806 
L 176.9625 40.669806 
L 176.9625 38.469335 
L 114.1875 38.469335 
z
" clip-path="url(#p4c1acf8521)" style="fill: #dbdb8d"/>
   </g>
   <g id="patch_39">
    <path d="M 44.4375 38.77468 
L 107.2125 38.77468 
L 107.2125 36.30672 
L 44.4375 36.30672 
z
" clip-path="url(#p4c1acf8521)" style="fill: #17becf"/>
   </g>
   <g id="patch_40">
    <path d="M 114.1875 38.469335 
L 176.9625 38.469335 
L 176.9625 36.093727 
L 114.1875 36.093727 
z
" clip-path="url(#p4c1acf8521)" style="fill: #17becf"/>
   </g>
   <g id="patch_41">
    <path d="M 44.4375 36.30672 
L 107.2125 36.30672 
L 107.2125 33.84 
L 44.4375 33.84 
z
" clip-path="url(#p4c1acf8521)" style="fill: #9edae5"/>
   </g>
   <g id="patch_42">
    <path d="M 114.1875 36.093727 
L 176.9625 36.093727 
L 176.9625 33.84 
L 114.1875 33.84 
z
" clip-path="url(#p4c1acf8521)" style="fill: #9edae5"/>
   </g>
   <g id="patch_43">
    <path d="M 27 192.24 
L 27 25.92 
" style="fill: none; stroke: #000000; stroke-width: 0.25; stroke-linejoin: miter; stroke-linecap: square"/>
   </g>
   <g id="patch_44">
    <path d="M 194.4 192.24 
L 194.4 25.92 
" style="fill: none; stroke: #000000; stroke-width: 0.25; stroke-linejoin: miter; stroke-linecap: square"/>
   </g>
   <g id="patch_45">
    <path d="M 27 192.24 
L 194.4 192.24 
" style="fill: none; stroke: #000000; stroke-width: 0.25; stroke-linejoin: miter; stroke-linecap: square"/>
   </g>
   <g id="patch_46">
    <path d="M 27 25.92 
L 194.4 25.92 
" style="fill: none; stroke: #000000; stroke-width: 0.25; stroke-linejoin: miter; stroke-linecap: square"/>
   </g>
   <g id="legend_1">
    <g id="patch_47">
     <path d="M 198.6491 197.773236 
L 217 197.773236 
Q 413.55516 197.773236 413.55516 196.607036 
Q 413.55516 28.8355 412.38896 28.8355 
M 217 28.8355 
L 198.6491 28.8355 
Q 197.4829 28.8355 197.4829 30.0017 
L 197.4829 196.607036 
Q 197.4829 197.773236 198.6491 197.773236 
L 198.6491 197.773236 
" style="fill: none; opacity: 0.8; stroke: #cccccc; stroke-linejoin: miter"/>
    </g>
    <g id="patch_48">
     <path d="M 199.8153 35.34162 
L 211.4773 35.34162 
L 211.4773 31.25992 
L 199.8153 31.25992 
z
" style="fill: #1f77b4"/>
    </g>
    <g id="text_11">
     <text style="font: 5.831px 'Arial'; text-anchor: start" x="216.1421" y="35.34162" transform="rotate(-0 216.1421 35.34162)">others</text>
    </g>
    <g id="patch_49">
     <path d="M 199.8153 43.660818 
L 211.4773 43.660818 
L 211.4773 39.579118 
L 199.8153 39.579118 
z
" style="fill: #aec7e8"/>
    </g>
    <g id="text_12">
     <text style="font: 5.831px 'Arial'; text-anchor: start" x="216.1421" y="43.660818" transform="rotate(-0 216.1421 43.660818)">PWY0-1586: peptidoglycan maturation (meso-diaminopimelate containing)</text>
    </g>
    <g id="patch_50">
     <path d="M 199.8153 52.048347 
L 211.4773 52.048347 
L 211.4773 47.966647 
L 199.8153 47.966647 
z
" style="fill: #ff7f0e"/>
    </g>
    <g id="text_13">
     <text style="font: 5.831px 'Arial'; text-anchor: start" x="216.1421" y="52.048347" transform="rotate(-0 216.1421 52.048347)">PWY-6277: superpathway of 5-aminoimidazole ribonucleotide biosynthesis</text>
    </g>
    <g id="patch_51">
     <path d="M 199.8153 60.382121 
L 211.4773 60.382121 
L 211.4773 56.300421 
L 199.8153 56.300421 
z
" style="fill: #ffbb78"/>
    </g>
    <g id="text_14">
     <text style="font: 5.831px 'Arial'; text-anchor: start" x="216.1421" y="60.382121" transform="rotate(-0 216.1421 60.382121)">PWY-6122: 5-aminoimidazole ribonucleotide biosynthesis II</text>
    </g>
    <g id="patch_52">
     <path d="M 199.8153 68.76965 
L 211.4773 68.76965 
L 211.4773 64.68795 
L 199.8153 64.68795 
z
" style="fill: #2ca02c"/>
    </g>
    <g id="text_15">
     <text style="font: 5.831px 'Arial'; text-anchor: start" x="216.1421" y="68.76965" transform="rotate(-0 216.1421 68.76965)">PWY-7111: pyruvate fermentation to isobutanol (engineered)</text>
    </g>
    <g id="patch_53">
     <path d="M 199.8153 77.157179 
L 211.4773 77.157179 
L 211.4773 73.075479 
L 199.8153 73.075479 
z
" style="fill: #98df8a"/>
    </g>
    <g id="text_16">
     <text style="font: 5.831px 'Arial'; text-anchor: start" x="216.1421" y="77.157179" transform="rotate(-0 216.1421 77.157179)">VALSYN-PWY: L-valine biosynthesis</text>
    </g>
    <g id="patch_54">
     <path d="M 199.8153 85.490954 
L 211.4773 85.490954 
L 211.4773 81.409254 
L 199.8153 81.409254 
z
" style="fill: #d62728"/>
    </g>
    <g id="text_17">
     <text style="font: 5.831px 'Arial'; text-anchor: start" x="216.1421" y="85.490954" transform="rotate(-0 216.1421 85.490954)">PWY-6121: 5-aminoimidazole ribonucleotide biosynthesis I</text>
    </g>
    <g id="patch_55">
     <path d="M 199.8153 93.824728 
L 211.4773 93.824728 
L 211.4773 89.743028 
L 199.8153 89.743028 
z
" style="fill: #ff9896"/>
    </g>
    <g id="text_18">
     <text style="font: 5.831px 'Arial'; text-anchor: start" x="216.1421" y="93.824728" transform="rotate(-0 216.1421 93.824728)">PWY-7238: sucrose biosynthesis II</text>
    </g>
    <g id="patch_56">
     <path d="M 199.8153 102.215902 
L 211.4773 102.215902 
L 211.4773 98.134202 
L 199.8153 98.134202 
z
" style="fill: #9467bd"/>
    </g>
    <g id="text_19">
     <text style="font: 5.831px 'Arial'; text-anchor: start" x="216.1421" y="102.215902" transform="rotate(-0 216.1421 102.215902)">COA-PWY: coenzyme A biosynthesis I (prokaryotic)</text>
    </g>
    <g id="patch_57">
     <path d="M 199.8153 110.549676 
L 211.4773 110.549676 
L 211.4773 106.467976 
L 199.8153 106.467976 
z
" style="fill: #c5b0d5"/>
    </g>
    <g id="text_20">
     <text style="font: 5.831px 'Arial'; text-anchor: start" x="216.1421" y="110.549676" transform="rotate(-0 216.1421 110.549676)">PWY-1042: glycolysis IV</text>
    </g>
    <g id="patch_58">
     <path d="M 199.8153 118.937205 
L 211.4773 118.937205 
L 211.4773 114.855505 
L 199.8153 114.855505 
z
" style="fill: #8c564b"/>
    </g>
    <g id="text_21">
     <text style="font: 5.831px 'Arial'; text-anchor: start" x="216.1421" y="118.937205" transform="rotate(-0 216.1421 118.937205)">PWY-7229: superpathway of adenosine nucleotides de novo biosynthesis I</text>
    </g>
    <g id="patch_59">
     <path d="M 199.8153 127.324734 
L 211.4773 127.324734 
L 211.4773 123.243034 
L 199.8153 123.243034 
z
" style="fill: #c49c94"/>
    </g>
    <g id="text_22">
     <text style="font: 5.831px 'Arial'; text-anchor: start" x="216.1421" y="127.324734" transform="rotate(-0 216.1421 127.324734)">PWY-6126: superpathway of adenosine nucleotides de novo biosynthesis II</text>
    </g>
    <g id="patch_60">
     <path d="M 199.8153 135.712263 
L 211.4773 135.712263 
L 211.4773 131.630563 
L 199.8153 131.630563 
z
" style="fill: #e377c2"/>
    </g>
    <g id="text_23">
     <text style="font: 5.831px 'Arial'; text-anchor: start" x="216.1421" y="135.712263" transform="rotate(-0 216.1421 135.712263)">PWY-7208: superpathway of pyrimidine nucleobases salvage</text>
    </g>
    <g id="patch_61">
     <path d="M 199.8153 144.046038 
L 211.4773 144.046038 
L 211.4773 139.964338 
L 199.8153 139.964338 
z
" style="fill: #f7b6d2"/>
    </g>
    <g id="text_24">
     <text style="font: 5.831px 'Arial'; text-anchor: start" x="216.1421" y="144.046038" transform="rotate(-0 216.1421 144.046038)">PWY-6123: inosine-5'-phosphate biosynthesis I</text>
    </g>
    <g id="patch_62">
     <path d="M 199.8153 152.379812 
L 211.4773 152.379812 
L 211.4773 148.298112 
L 199.8153 148.298112 
z
" style="fill: #7f7f7f"/>
    </g>
    <g id="text_25">
     <text style="font: 5.831px 'Arial'; text-anchor: start" x="216.1421" y="152.379812" transform="rotate(-0 216.1421 152.379812)">PWY-7222: guanosine deoxyribonucleotides de novo biosynthesis II</text>
    </g>
    <g id="patch_63">
     <path d="M 199.8153 160.713587 
L 211.4773 160.713587 
L 211.4773 156.631887 
L 199.8153 156.631887 
z
" style="fill: #c7c7c7"/>
    </g>
    <g id="text_26">
     <text style="font: 5.831px 'Arial'; text-anchor: start" x="216.1421" y="160.713587" transform="rotate(-0 216.1421 160.713587)">PWY-7220: adenosine deoxyribonucleotides de novo biosynthesis II</text>
    </g>
    <g id="patch_64">
     <path d="M 199.8153 169.10476 
L 211.4773 169.10476 
L 211.4773 165.02306 
L 199.8153 165.02306 
z
" style="fill: #bcbd22"/>
    </g>
    <g id="text_27">
     <text style="font: 5.831px 'Arial'; text-anchor: start" x="216.1421" y="169.10476" transform="rotate(-0 216.1421 169.10476)">COMPLETE-ARO-PWY: superpathway of aromatic amino acid biosynthesis</text>
    </g>
    <g id="patch_65">
     <path d="M 199.8153 177.438535 
L 211.4773 177.438535 
L 211.4773 173.356835 
L 199.8153 173.356835 
z
" style="fill: #dbdb8d"/>
    </g>
    <g id="text_28">
     <text style="font: 5.831px 'Arial'; text-anchor: start" x="216.1421" y="177.438535" transform="rotate(-0 216.1421 177.438535)">PWY-7197: pyrimidine deoxyribonucleotide phosphorylation</text>
    </g>
    <g id="patch_66">
     <path d="M 199.8153 185.826064 
L 211.4773 185.826064 
L 211.4773 181.744364 
L 199.8153 181.744364 
z
" style="fill: #17becf"/>
    </g>
    <g id="text_29">
     <text style="font: 5.831px 'Arial'; text-anchor: start" x="216.1421" y="185.826064" transform="rotate(-0 216.1421 185.826064)">ILEUSYN-PWY: L-isoleucine biosynthesis I (from threonine)</text>
    </g>
    <g id="patch_67">
     <path d="M 199.8153 194.213593 
L 211.4773 194.213593 
L 211.4773 190.131893 
L 199.8153 190.131893 
z
" style="fill: #9edae5"/>
    </g>
    <g id="text_30">
     <text style="font: 5.831px 'Arial'; text-anchor: start" x="216.1421" y="194.213593" transform="rotate(-0 216.1421 194.213593)">PWY-7228: superpathway of guanosine nucleotides de novo biosynthesis I</text>
    </g>
   </g>
  </g>
 </g>
 <defs>
  <clipPath id="p4c1acf8521">
   <rect x="27" y="25.92" width="167.4" height="166.32"/>
  </clipPath>
 </defs>
</svg>
